ply
format ascii 1.0
obj_info Cocacola-00000.jpg
obj_info Cocacola-00001.jpg
obj_info Cocacola-00002.jpg
obj_info Cocacola-00003.jpg
obj_info Cocacola-00004.jpg
obj_info Cocacola-00005.jpg
obj_info Cocacola-00006.jpg
obj_info Cocacola-00007.jpg
obj_info Cocacola-00008.jpg
obj_info Cocacola-00009.jpg
obj_info Cocacola-00010.jpg
obj_info Cocacola-00011.jpg
obj_info Cocacola-00012.jpg
obj_info Cocacola-00013.jpg
obj_info Cocacola-00014.jpg
obj_info Cocacola-00015.jpg
element vertex 77
property float x
property float y
property float z
property float nx
property float ny
property float nz
element face 150
property list uchar uint vertex_indices
element pass 16
property list uchar uint face_indices
property float m0
property float m1
property float m2
property float m3
property float m4
property float m5
property float m6
property float m7
property float m8
property float m9
property float m10
property float m11
property float m12
property float m13
property float m14
property float m15
property float x
property float y
property float w
property float h
property uchar tex_index
end_header
-0.017123 0.006899 0.028063 -0.499782 -0.049480 0.864737
-0.010419 0.006893 0.031270 -0.266509 -0.049843 0.962543
0.014062 0.098298 -0.029817 0.448114 0.065474 -0.891576
0.017139 -0.000000 -0.018550 0.102449 -0.989150 -0.105296
0.023667 0.098055 -0.022817 0.720309 0.030737 -0.692972
0.020093 0.098056 -0.026020 0.588955 0.058144 -0.806071
-0.006220 0.006978 -0.032368 -0.205263 -0.144440 -0.967990
0.001195 0.006899 -0.032853 0.005998 -0.046172 -0.998915
-0.024487 0.006899 -0.021935 -0.751363 -0.083206 -0.654623
0.012680 0.006937 -0.030423 0.371888 -0.102024 -0.922654
0.005998 0.006900 -0.032324 0.206579 -0.080738 -0.975093
0.005561 0.098271 -0.032523 0.157778 0.063356 -0.985440
-0.019371 0.006891 -0.026667 -0.611314 -0.048850 -0.789879
-0.012862 0.006899 -0.030254 -0.411803 -0.058061 -0.909421
-0.011820 0.098022 0.030776 -0.359109 0.039406 0.932464
0.020114 0.098023 0.026122 0.585917 0.036244 0.809560
0.024433 -0.000014 -0.004381 0.483892 -0.872021 -0.073672
0.032088 0.006899 -0.007150 0.964625 -0.053713 -0.258097
0.020469 0.006845 -0.025880 0.602227 -0.048846 -0.796830
0.025268 0.098057 0.021030 0.756269 0.037384 0.653192
-0.000967 0.006944 0.032946 -0.019673 -0.121032 0.992454
-0.032875 0.006899 0.000011 -0.998085 -0.061132 -0.009449
0.029748 0.006843 -0.014193 0.886618 -0.121703 -0.446203
0.025801 0.116063 -0.007698 0.873633 0.436216 -0.215595
0.030354 0.098189 -0.012867 0.923124 0.067802 -0.378477
0.032328 0.098052 -0.005971 0.980344 0.041660 -0.192846
0.019731 0.115751 0.018804 0.204747 0.955420 0.212724
0.026554 0.115456 0.006054 0.767104 0.615020 0.182490
0.004265 -0.000000 -0.024660 0.014774 -0.990612 -0.135900
0.032853 0.098052 -0.001198 0.997144 0.075485 -0.002407
-0.002625 0.097805 0.032883 -0.109758 0.063754 0.991912
-0.018140 0.098055 0.027417 -0.571969 0.085851 0.815770
0.021263 0.006950 0.025185 0.643797 -0.129087 0.754230
0.026023 0.006899 0.020089 0.805955 -0.056508 0.589274
0.026017 0.006899 -0.020096 0.778319 -0.062971 -0.624703
0.026738 0.098056 -0.019127 0.834278 0.037663 -0.550057
-0.011744 0.098054 -0.030706 -0.340843 0.038408 -0.939336
-0.004751 0.098055 -0.032623 -0.094481 0.041184 -0.994674
-0.031884 0.098022 -0.008385 -0.958523 0.035954 -0.282738
-0.032853 0.098052 -0.001202 -0.995159 0.060752 -0.077255
-0.025893 0.115817 -0.007691 -0.875668 0.392820 -0.280887
-0.015241 -0.000485 -0.020187 -0.260856 -0.896181 -0.358906
-0.023762 0.098028 0.022853 -0.736107 0.039494 0.675712
-0.022698 0.006896 0.023900 -0.672860 -0.057896 0.737501
0.030191 0.006842 0.013298 0.927952 -0.052462 0.368988
0.029209 0.097670 0.015273 0.886831 0.069272 0.456872
0.032411 0.098020 0.006033 0.971627 0.037120 0.233586
0.013956 0.098054 0.029766 0.421952 0.113477 0.899488
0.008115 -0.000001 0.023668 0.149069 -0.885622 0.439832
0.022051 -0.000000 0.012304 0.166466 -0.981483 0.094766
0.005973 0.006898 0.032328 0.193936 -0.083183 0.977481
0.006712 0.098023 0.032288 0.188667 0.030941 0.981554
0.013652 0.006876 0.030040 0.420554 -0.046012 0.906100
-0.032525 0.006849 0.004782 -0.977701 -0.106019 0.181273
-0.032220 0.006982 -0.006950 -0.977211 -0.059018 -0.203900
-0.018158 0.097933 -0.027518 -0.541658 0.073276 -0.837399
-0.025044 0.098026 -0.021456 -0.749920 0.030953 -0.660803
-0.029164 0.006961 -0.015436 -0.882637 -0.103334 -0.458556
-0.029236 0.098054 -0.015035 -0.880236 0.093734 -0.465187
-0.032678 0.098053 0.003593 -0.987852 0.081253 0.132460
-0.031268 0.098070 0.010425 -0.953394 0.038368 0.299279
-0.027412 0.006875 0.018148 -0.810261 -0.141170 0.568812
-0.028062 0.098057 0.017125 -0.863101 0.035235 0.503802
-0.030700 0.006903 0.011994 -0.922755 -0.056254 0.381258
-0.009754 0.115752 0.025307 -0.284813 0.676188 0.679449
-0.023749 0.115780 0.014023 -0.741896 0.459526 0.488290
-0.023570 -0.000000 0.007847 -0.453085 -0.867610 0.204858
0.032787 0.006899 -0.002404 0.996075 -0.061269 -0.063874
0.032642 0.006977 0.004567 0.983463 -0.123927 0.132067
-0.011286 -0.000002 0.023366 -0.054735 -0.993040 0.104289
-0.024536 0.000007 -0.003952 -0.169226 -0.984991 -0.033985
0.004047 0.115751 0.026901 0.110374 0.836596 0.536586
-0.019635 0.115765 -0.018781 -0.589012 0.566666 -0.576154
-0.006545 0.115755 -0.026472 -0.157501 0.722939 -0.672720
0.008540 0.115751 -0.025756 0.135302 0.887572 -0.440351
0.019915 0.115751 -0.018430 0.202508 0.960095 -0.192895
-0.026835 0.115749 0.001081 -0.109084 0.993985 0.009713
3 47 26 71
3 39 21 59
3 68 67 29
3 30 1 20
3 30 14 1
3 42 31 65
3 14 0 1
3 31 0 14
3 51 47 71
3 47 15 26
3 5 18 2
3 18 4 34
3 18 5 4
3 18 34 3
3 12 56 55
3 2 74 75
3 8 56 12
3 7 11 10
3 13 36 6
3 31 43 0
3 9 28 10
3 22 3 34
3 20 51 30
3 35 34 4
3 26 15 19
3 13 55 36
3 5 2 75
3 4 75 35
3 23 24 75
3 75 24 35
3 70 54 57
3 38 39 40
3 54 38 57
3 28 7 10
3 6 7 28
3 11 74 2
3 11 2 9
3 41 12 13
3 67 16 17
3 64 14 30
3 41 70 57
3 22 16 3
3 3 16 49
3 16 22 17
3 11 9 10
3 18 3 9
3 2 18 9
3 9 3 28
3 44 33 49
3 32 19 15
3 33 19 32
3 45 19 33
3 69 20 1
3 49 32 48
3 53 60 59
3 69 1 0
3 22 24 17
3 27 23 75
3 25 17 24
3 29 67 25
3 17 25 67
3 36 37 6
3 4 5 75
3 11 73 74
3 37 73 11
3 37 7 6
3 37 11 7
3 57 56 8
3 54 21 39
3 54 39 38
3 12 55 13
3 41 6 28
3 6 41 13
3 46 68 29
3 71 64 30
3 31 42 43
3 52 32 15
3 41 8 12
3 45 26 19
3 44 45 33
3 69 48 20
3 53 59 21
3 24 22 35
3 23 27 29
3 25 24 23
3 25 23 29
3 26 27 75
3 26 45 27
3 27 45 46
3 55 73 36
3 72 73 55
3 72 58 40
3 62 61 42
3 46 29 27
3 71 30 51
3 64 31 14
3 65 31 64
3 65 60 62
3 47 51 52
3 32 52 48
3 8 41 57
3 20 48 50
3 66 61 63
3 63 60 53
3 69 61 66
3 43 61 69
3 34 35 22
3 36 73 37
3 55 56 72
3 58 38 40
3 56 58 72
3 58 57 38
3 40 39 76
3 39 59 76
3 41 28 70
3 61 43 42
3 63 62 60
3 68 49 16
3 49 68 44
3 44 46 45
3 44 68 46
3 62 42 65
3 15 47 52
3 32 49 33
3 52 50 48
3 51 20 50
3 50 52 51
3 54 70 21
3 43 69 0
3 58 56 57
3 65 76 59
3 65 59 60
3 63 61 62
3 53 70 66
3 53 66 63
3 70 53 21
3 67 68 16
3 69 70 28
3 69 3 49
3 69 66 70
3 69 28 3
3 49 48 69
3 74 73 76
3 76 75 74
3 72 40 76
3 71 26 76
3 76 26 75
3 76 65 64
3 64 71 76
3 73 72 76
18 0 3 4 8 9 22 24 39 49 74 76 78 94 95 98 122 125 126 1.662197 -0.435447 -0.372867 -0.358245 -0.028382 2.164370 -0.469820 -0.451395 -0.764334 -1.028385 -0.850593 -0.817236 0.399180 -0.394585 1.091754 1.245019 0.645710 0.328228 0.038199 0.101240 0
3 50 87 88 1.419459 -0.773543 -0.551360 -0.529738 -0.039208 2.070694 -0.540783 -0.519576 -1.153919 -1.022615 -0.697750 -0.670387 0.384566 -0.373699 1.041720 1.196946 0.665387 0.327706 0.021209 0.100184 1
5 51 79 93 119 120 1.109021 -0.709105 -0.758053 -0.728325 0.027554 2.276207 -0.361722 -0.347537 -1.455073 -0.497917 -0.614662 -0.590557 0.469467 -0.410902 1.142482 1.293757 0.686144 0.331956 0.020230 0.099001 2
10 57 86 142 143 144 145 146 147 148 149 1.342945 -1.297136 -0.425284 -0.408606 0.260596 1.771330 -0.689184 -0.662157 -1.215121 -1.054378 -0.653802 -0.628163 0.517579 -0.446667 1.254657 1.401534 0.688124 0.390018 0.036550 0.036977 3
8 5 6 7 19 75 96 97 121 1.802293 0.208770 0.180162 0.173096 0.023151 2.022288 -0.572516 -0.550064 0.314857 -1.341138 -0.850333 -0.816987 0.409677 -0.380845 1.036419 1.191854 0.659645 0.322946 0.022457 0.100445 4
6 92 115 116 130 131 132 1.638187 0.546001 0.423854 0.407232 0.030525 2.062590 -0.545646 -0.524248 0.814458 -1.174518 -0.778407 -0.747881 0.418581 -0.392525 1.054714 1.209431 0.659695 0.322361 0.017653 0.103013 5
6 31 54 81 103 112 113 1.313674 0.821114 0.653692 0.628057 0.051375 2.095204 -0.521899 -0.501432 1.272616 -0.931547 -0.619361 -0.595072 0.417950 -0.401870 1.056858 1.211491 0.657967 0.320673 0.015895 0.103431 6
5 1 68 69 91 109 0.899729 0.982834 0.818002 0.785923 0.073111 2.130623 -0.494182 -0.474803 1.591563 -0.652968 -0.412257 -0.396090 0.425687 -0.411718 1.066516 1.220770 0.661583 0.319856 0.016767 0.105822 7
3 32 110 111 0.528889 1.155103 0.876137 0.841779 0.049615 2.105013 -0.514797 -0.494609 1.750927 -0.408095 -0.225093 -0.216266 0.434757 -0.414639 1.070404 1.224506 0.663625 0.318341 0.013645 0.101138 8
7 14 16 67 89 90 108 129 -0.262397 1.201481 0.893360 0.858326 0.038643 2.114609 -0.508090 -0.488165 1.810410 0.129455 0.164474 0.158024 0.420132 -0.405366 1.012144 1.168531 0.664815 0.312033 0.020136 0.109997 9
7 18 25 61 63 64 70 107 -1.114300 1.020231 0.689680 0.662633 0.043428 2.090508 -0.525621 -0.505009 1.450648 0.721659 0.575642 0.553068 0.424144 -0.401570 0.997135 1.154110 0.670316 0.310261 0.019359 0.111792 10
7 15 17 26 35 44 65 66 -1.623821 0.664377 0.367470 0.353059 0.086112 2.082968 -0.528792 -0.508055 0.838880 1.073189 0.817706 0.785639 0.424362 -0.397349 0.992281 1.149447 0.668153 0.311458 0.024491 0.113397 11
7 10 27 28 29 36 46 62 -1.824003 0.185562 -0.001786 -0.001716 0.101524 2.095995 -0.518330 -0.498003 0.103130 1.226480 0.902568 0.867173 0.419595 -0.386917 0.971540 1.129519 0.672288 0.314790 0.025397 0.115584 12
7 11 12 23 82 84 85 106 -1.698550 -0.236523 -0.396489 -0.380940 0.156994 2.151862 -0.469759 -0.451337 -0.661977 1.115989 0.839894 0.806957 0.419137 -0.390787 0.980668 1.138289 0.670385 0.314833 0.025613 0.112387 13
7 2 56 58 59 60 73 83 -1.305863 -0.602895 -0.700965 -0.673477 0.126877 2.206622 -0.425307 -0.408628 -1.275364 0.836195 0.641140 0.615997 0.428474 -0.399083 1.015689 1.171937 0.665625 0.318573 0.024564 0.111527 14
21 42 48 52 53 55 80 99 101 102 104 105 114 123 124 128 134 137 138 139 140 141 1.808588 -0.046478 -0.133002 -0.127786 0.241135 1.459973 0.829619 0.797085 -0.137091 1.948898 -0.614281 -0.590191 0.448412 -0.243623 0.984054 1.141542 0.670065 0.373705 0.051395 0.051265 15
