ply
format ascii 1.0
element vertex 130
property float x
property float y
property float z
property float nx
property float ny
property float nz
element face 128
property list uchar uint vertex_indices
element pass 9
property list uchar uint face_indices
property float m0
property float m1
property float m2
property float m3
property float m4
property float m5
property float m6
property float m7
property float m8
property float m9
property float m10
property float m11
property float m12
property float m13
property float m14
property float m15
property float x
property float y
property float w
property float h
property uchar tex_index
end_header
0.000000 0.000000 -0.048875 0.000000 0.000000 0.000000
0.019826 0.019826 -0.048875 0.000000 0.000000 0.000000
0.023313 0.015578 -0.048875 0.000000 0.000000 0.000000
0.000000 0.000000 0.048875 0.000000 0.000000 0.000000
0.023313 0.015578 0.048875 0.000000 0.000000 0.000000
0.019826 0.019826 0.048875 0.000000 0.000000 0.000000
0.025904 0.010730 -0.048875 0.000000 0.000000 0.000000
0.025904 0.010730 0.048875 0.000000 0.000000 0.000000
0.027500 0.005470 -0.048875 0.000000 0.000000 0.000000
0.027500 0.005470 0.048875 0.000000 0.000000 0.000000
0.028039 0.000000 -0.048875 0.000000 0.000000 0.000000
0.028039 0.000000 0.048875 0.000000 0.000000 0.000000
0.027500 -0.005470 -0.048875 0.000000 0.000000 0.000000
0.027500 -0.005470 0.048875 0.000000 0.000000 0.000000
0.025904 -0.010730 -0.048875 0.000000 0.000000 0.000000
0.025904 -0.010730 0.048875 0.000000 0.000000 0.000000
0.023313 -0.015578 -0.048875 0.000000 0.000000 0.000000
0.023313 -0.015578 0.048875 0.000000 0.000000 0.000000
0.019826 -0.019826 -0.048875 0.000000 0.000000 0.000000
0.019826 -0.019826 0.048875 0.000000 0.000000 0.000000
0.015578 -0.023313 -0.048875 0.000000 0.000000 0.000000
0.015578 -0.023313 0.048875 0.000000 0.000000 0.000000
0.010730 -0.025904 -0.048875 0.000000 0.000000 0.000000
0.010730 -0.025904 0.048875 0.000000 0.000000 0.000000
0.005470 -0.027500 -0.048875 0.000000 0.000000 0.000000
0.005470 -0.027500 0.048875 0.000000 0.000000 0.000000
0.000000 -0.028039 -0.048875 0.000000 0.000000 0.000000
0.000000 -0.028039 0.048875 0.000000 0.000000 0.000000
-0.005470 -0.027500 -0.048875 0.000000 0.000000 0.000000
-0.005470 -0.027500 0.048875 0.000000 0.000000 0.000000
-0.010730 -0.025904 -0.048875 0.000000 0.000000 0.000000
-0.010730 -0.025904 0.048875 0.000000 0.000000 0.000000
-0.015578 -0.023313 -0.048875 0.000000 0.000000 0.000000
-0.015578 -0.023313 0.048875 0.000000 0.000000 0.000000
-0.019826 -0.019826 -0.048875 0.000000 0.000000 0.000000
-0.019826 -0.019826 0.048875 0.000000 0.000000 0.000000
-0.023313 -0.015578 -0.048875 0.000000 0.000000 0.000000
-0.023313 -0.015578 0.048875 0.000000 0.000000 0.000000
-0.025904 -0.010730 -0.048875 0.000000 0.000000 0.000000
-0.025904 -0.010730 0.048875 0.000000 0.000000 0.000000
-0.027500 -0.005470 -0.048875 0.000000 0.000000 0.000000
-0.027500 -0.005470 0.048875 0.000000 0.000000 0.000000
-0.028039 0.000000 -0.048875 0.000000 0.000000 0.000000
-0.028039 0.000000 0.048875 0.000000 0.000000 0.000000
-0.027500 0.005470 -0.048875 0.000000 0.000000 0.000000
-0.027500 0.005470 0.048875 0.000000 0.000000 0.000000
-0.025904 0.010730 -0.048875 0.000000 0.000000 0.000000
-0.025904 0.010730 0.048875 0.000000 0.000000 0.000000
-0.023313 0.015578 -0.048875 0.000000 0.000000 0.000000
-0.023313 0.015577 0.048875 0.000000 0.000000 0.000000
-0.019826 0.019826 -0.048875 0.000000 0.000000 0.000000
-0.019826 0.019826 0.048875 0.000000 0.000000 0.000000
-0.015578 0.023313 -0.048875 0.000000 0.000000 0.000000
-0.015578 0.023313 0.048875 0.000000 0.000000 0.000000
-0.010730 0.025904 -0.048875 0.000000 0.000000 0.000000
-0.010730 0.025904 0.048875 0.000000 0.000000 0.000000
-0.005470 0.027500 -0.048875 0.000000 0.000000 0.000000
-0.005470 0.027500 0.048875 0.000000 0.000000 0.000000
0.000000 0.028039 -0.048875 0.000000 0.000000 0.000000
0.000000 0.028039 0.048875 0.000000 0.000000 0.000000
0.005470 0.027500 -0.048875 0.000000 0.000000 0.000000
0.005470 0.027500 0.048875 0.000000 0.000000 0.000000
0.010730 0.025904 -0.048875 0.000000 0.000000 0.000000
0.010730 0.025905 0.048875 0.000000 0.000000 0.000000
0.015578 0.023313 -0.048875 0.000000 0.000000 0.000000
0.015577 0.023313 0.048875 0.000000 0.000000 0.000000
0.019826 0.019826 -0.048875 0.000000 0.000000 0.000000
0.019826 0.019826 0.048875 0.000000 0.000000 0.000000
0.023313 0.015578 0.048875 0.000000 0.000000 0.000000
0.023313 0.015578 -0.048875 0.000000 0.000000 0.000000
0.025904 0.010730 0.048875 0.000000 0.000000 0.000000
0.025904 0.010730 -0.048875 0.000000 0.000000 0.000000
0.027500 0.005470 0.048875 0.000000 0.000000 0.000000
0.027500 0.005470 -0.048875 0.000000 0.000000 0.000000
0.028039 0.000000 0.048875 0.000000 0.000000 0.000000
0.028039 0.000000 -0.048875 0.000000 0.000000 0.000000
0.027500 -0.005470 0.048875 0.000000 0.000000 0.000000
0.027500 -0.005470 -0.048875 0.000000 0.000000 0.000000
0.025904 -0.010730 0.048875 0.000000 0.000000 0.000000
0.025904 -0.010730 -0.048875 0.000000 0.000000 0.000000
0.023313 -0.015578 0.048875 0.000000 0.000000 0.000000
0.023313 -0.015578 -0.048875 0.000000 0.000000 0.000000
0.019826 -0.019826 0.048875 0.000000 0.000000 0.000000
0.019826 -0.019826 -0.048875 0.000000 0.000000 0.000000
0.015578 -0.023313 0.048875 0.000000 0.000000 0.000000
0.015578 -0.023313 -0.048875 0.000000 0.000000 0.000000
0.010730 -0.025904 0.048875 0.000000 0.000000 0.000000
0.010730 -0.025904 -0.048875 0.000000 0.000000 0.000000
0.005470 -0.027500 0.048875 0.000000 0.000000 0.000000
0.005470 -0.027500 -0.048875 0.000000 0.000000 0.000000
0.000000 -0.028039 0.048875 0.000000 0.000000 0.000000
0.000000 -0.028039 -0.048875 0.000000 0.000000 0.000000
-0.005470 -0.027500 0.048875 0.000000 0.000000 0.000000
-0.005470 -0.027500 -0.048875 0.000000 0.000000 -0.000004
-0.010730 -0.025904 0.048875 0.000000 0.000000 0.000000
-0.010730 -0.025904 -0.048875 0.000000 0.000000 0.000000
-0.015578 -0.023313 0.048875 0.000000 0.000000 0.000000
-0.015578 -0.023313 -0.048875 0.000000 0.000000 0.000000
-0.019826 -0.019826 0.048875 0.000000 0.000000 0.000000
-0.019826 -0.019826 -0.048875 0.000000 0.000000 0.000000
-0.023313 -0.015578 0.048875 0.000000 0.000000 0.000000
-0.023313 -0.015578 -0.048875 0.000000 0.000000 0.000000
-0.025904 -0.010730 0.048875 0.000000 0.000000 0.000000
-0.025904 -0.010730 -0.048875 0.000000 0.000000 0.000000
-0.027500 -0.005470 0.048875 0.000000 0.000000 0.000000
-0.027500 -0.005470 -0.048875 0.000000 0.000000 0.000000
-0.028039 0.000000 0.048875 0.000000 0.000000 0.000000
-0.028039 0.000000 -0.048875 0.000000 0.000000 0.000000
-0.027500 0.005470 0.048875 0.000000 0.000000 0.000000
-0.027500 0.005470 -0.048875 0.000000 0.000000 0.000000
-0.025904 0.010730 0.048875 0.000000 0.000000 0.000000
-0.025904 0.010730 -0.048875 0.000000 0.000000 0.000000
-0.023313 0.015577 0.048875 0.000000 0.000000 0.000000
-0.023313 0.015578 -0.048875 0.000000 0.000000 0.000000
-0.019826 0.019826 0.048875 0.000000 0.000000 0.000000
-0.019826 0.019826 -0.048875 0.000000 0.000000 0.000000
-0.015578 0.023313 0.048875 0.000000 0.000000 0.000000
-0.015578 0.023313 -0.048875 0.000000 0.000000 0.000000
-0.010730 0.025904 0.048875 0.000000 0.000000 0.000000
-0.010730 0.025904 -0.048875 0.000000 0.000000 0.000000
-0.005470 0.027500 0.048875 0.000000 0.000000 0.000000
-0.005470 0.027500 -0.048875 0.000000 0.000000 0.000000
0.000000 0.028039 0.048875 0.000000 0.000000 0.000000
0.000000 0.028039 -0.048875 0.000000 0.000000 0.000000
0.005470 0.027500 0.048875 0.000000 0.000000 0.000000
0.005470 0.027500 -0.048875 0.000000 0.000000 0.000000
0.010730 0.025905 0.048875 0.000000 0.000000 0.000000
0.010730 0.025904 -0.048875 0.000000 0.000000 0.000000
0.015577 0.023313 0.048875 0.000000 0.000000 0.000000
0.015578 0.023313 -0.048875 0.000000 0.000000 0.000000
3 0 1 2
3 3 4 5
3 0 2 6
3 3 7 4
3 0 6 8
3 3 9 7
3 0 8 10
3 3 11 9
3 0 10 12
3 3 13 11
3 0 12 14
3 3 15 13
3 0 14 16
3 3 17 15
3 0 16 18
3 3 19 17
3 0 18 20
3 3 21 19
3 0 20 22
3 3 23 21
3 0 22 24
3 3 25 23
3 0 24 26
3 3 27 25
3 0 26 28
3 3 29 27
3 0 28 30
3 3 31 29
3 0 30 32
3 3 33 31
3 0 32 34
3 3 35 33
3 0 34 36
3 3 37 35
3 0 36 38
3 3 39 37
3 0 38 40
3 3 41 39
3 0 40 42
3 3 43 41
3 0 42 44
3 3 45 43
3 0 44 46
3 3 47 45
3 0 46 48
3 3 49 47
3 0 48 50
3 3 51 49
3 0 50 52
3 3 53 51
3 0 52 54
3 3 55 53
3 0 54 56
3 3 57 55
3 0 56 58
3 3 59 57
3 0 58 60
3 3 61 59
3 0 60 62
3 3 63 61
3 0 62 64
3 3 65 63
3 1 0 64
3 3 5 65
3 66 67 68
3 66 68 69
3 69 68 70
3 69 70 71
3 71 70 72
3 71 72 73
3 73 72 74
3 73 74 75
3 75 74 76
3 75 76 77
3 77 76 78
3 77 78 79
3 79 78 80
3 79 80 81
3 81 80 82
3 81 82 83
3 83 82 84
3 83 84 85
3 85 84 86
3 85 86 87
3 87 86 88
3 87 88 89
3 89 88 90
3 89 90 91
3 91 90 92
3 91 92 93
3 93 92 94
3 93 94 95
3 95 94 96
3 95 96 97
3 97 96 98
3 97 98 99
3 99 98 100
3 99 100 101
3 101 100 102
3 101 102 103
3 103 102 104
3 103 104 105
3 105 104 106
3 105 106 107
3 107 106 108
3 107 108 109
3 109 108 110
3 109 110 111
3 111 110 112
3 111 112 113
3 113 112 114
3 113 114 115
3 115 114 116
3 115 116 117
3 117 116 118
3 117 118 119
3 119 118 120
3 119 120 121
3 121 120 122
3 121 122 123
3 123 122 124
3 123 124 125
3 125 124 126
3 125 126 127
3 127 126 128
3 127 128 129
3 67 66 129
3 67 129 128
14 100 101 102 103 104 105 106 107 108 109 110 111 112 113 -0.631005 0.623523 0.904827 0.869344 -1.660485 -0.335504 -0.386461 -0.371306 -0.075458 2.252129 -0.339461 -0.326148 -0.063250 -0.159912 0.510457 0.686518 0.426108 0.285683 0.055323 0.166474 0
14 64 65 66 67 68 69 120 121 122 123 124 125 126 127 -1.186163 -0.666754 -0.743446 -0.714291 1.313201 -0.313226 -0.642975 -0.617760 -0.172023 2.242935 -0.342302 -0.328878 -0.046717 -0.147129 0.496540 0.673147 0.436471 0.290951 0.062421 0.172873 1
10 70 71 72 73 74 75 76 77 78 79 0.427212 -0.641888 -0.947143 -0.910000 1.710271 0.457717 0.244869 0.235266 -0.231379 2.225288 -0.355329 -0.341394 -0.039155 -0.141646 0.489829 0.666699 0.439502 0.293091 0.055387 0.168561 2
10 80 81 82 83 84 85 86 87 88 89 1.619957 -0.231575 -0.363914 -0.349643 0.724167 0.846297 0.883824 0.849165 -0.111332 2.191708 -0.411971 -0.395815 -0.028075 -0.137604 0.472399 0.649952 0.448871 0.290901 0.047354 0.166374 3
4 90 91 92 93 1.754487 0.271030 -0.067005 -0.064377 0.113878 0.846244 0.960376 0.922714 -0.264345 2.187200 -0.395584 -0.380071 -0.021694 -0.150968 0.466000 0.643804 0.446587 0.278286 0.036544 0.165473 4
6 94 95 96 97 98 99 1.144808 0.745972 0.748962 0.719591 -1.351762 0.387704 0.607194 0.583383 -0.152398 2.206047 -0.392006 -0.376634 -0.015460 -0.151523 0.471732 0.649311 0.468598 0.279721 0.035811 0.167183 5
32 1 3 5 7 9 11 13 15 17 19 21 23 25 27 29 31 33 35 37 39 41 43 45 47 49 51 53 55 57 59 61 63 0.683577 -1.355142 -0.713661 -0.685674 1.632912 0.744277 0.286698 0.275455 -0.165506 1.784117 -0.701278 -0.673777 -0.015279 -0.173148 0.364504 0.546288 0.428928 0.369033 0.096666 0.090899 6
6 114 115 116 117 118 119 -1.759825 -0.332560 -0.046039 -0.044234 0.080389 -0.792935 -0.965039 -0.927194 -0.240052 2.198656 -0.387142 -0.371960 0.021324 -0.090164 0.399174 0.579599 0.511062 0.307745 0.042977 0.195946 7
32 0 2 4 6 8 10 12 14 16 18 20 22 24 26 28 30 32 34 36 38 40 42 44 46 48 50 52 54 56 58 60 62 1.665911 -0.769918 -0.073405 -0.070527 -0.616532 -2.145440 -0.230707 -0.221659 0.075500 -0.614613 1.012267 0.972571 0.044592 -0.350696 0.356655 0.538747 0.490964 0.103381 0.101226 0.138618 8
