ply
format ascii 1.0
comment VCGLIB generated
element vertex 290
property float x
property float y
property float z
element face 576
property list uchar int vertex_indices
end_header
0.0661827 -0.00182442 -0.00337433 
0.0662801 -0.00191232 -0.00325664 
0.0676916 0.00013597 -0.00325664 
0.0512087 -0.00070744 -0.00325664 
0.0587197 0.0139888 -0.00325664 
0.0685248 0.00247978 -0.00325664 
0.0596704 -0.00459136 -0.0035144 
0.0573088 -0.00440256 -0.0035144 
0.057214 -0.0048457 -0.00325664 
0.0620005 -0.00416248 -0.0035144 
0.0611719 0.0136623 -0.00337433 
0.0611993 0.0137906 -0.00325664 
0.0635431 0.0129574 -0.00325664 
0.0683965 0.00250722 -0.00337433 
0.0675747 0.00019567 -0.00337433 
0.0674381 0.00026548 -0.00346159 
0.0587429 0.0135363 -0.0035144 
0.0587343 0.0137046 -0.00346159 
0.0511253 0.00860271 -0.0035144 
0.0611398 0.0135123 -0.00346159 
0.0634834 0.0128405 -0.00337433 
0.0548702 -0.00401245 -0.00325664 
0.0572414 -0.0047174 -0.00337433 
0.0572735 -0.0045674 -0.00346159 
0.0531255 -0.00226458 -0.0035144 
0.0550764 -0.00360893 -0.0035144 
0.0514476 -0.00055274 -0.00346159 
0.0515891 -0.00046111 -0.0035144 
0.0659437 -0.00160868 -0.0035144 
0.0660688 -0.00172163 -0.00346159 
0.0641402 -0.00314515 -0.0035144 
0.0672881 0.0003422 -0.0035144 
0.0620997 -0.00446881 -0.00337433 
0.0643152 -0.00341539 -0.00337433 
0.0642318 -0.00328663 -0.00346159 
0.0620524 -0.00432286 -0.00346159 
0.0643866 -0.0035255 -0.00325664 
0.06214 -0.00459363 -0.00325664 
0.0596936 -0.00504393 -0.00325664 
0.0596869 -0.0049129 -0.00337433 
0.0596791 -0.00475971 -0.00346159 
0.0682705 0.00493624 -0.0035144 
0.0684388 0.00494485 -0.00346159 
0.0680817 0.00257455 -0.0035144 
0.0682465 0.0025393 -0.00346159 
0.0499745 0.00400005 -0.00346159 
0.0503316 0.00637036 -0.0035144 
0.0501429 0.00400867 -0.0035144 
0.0505717 0.00167858 -0.0035144 
0.0502654 0.00157947 -0.00337433 
0.0498213 0.00399221 -0.00337433 
0.0504113 0.00162669 -0.00346159 
0.0501406 0.00153908 -0.00325664 
0.0496903 0.00398551 -0.00325664 
0.0563137 0.0134137 -0.00337433 
0.0562733 0.0135385 -0.00325664 
0.0587264 0.0138578 -0.00337433 
0.0563609 0.0132678 -0.00346159 
0.0540268 0.0124704 -0.00325664 
0.0611046 0.0133475 -0.0035144 
0.068592 0.00495269 -0.00337433 
0.068723 0.0049594 -0.00325664 
0.0682727 0.00740582 -0.00325664 
0.0529098 -0.00250358 -0.00337433 
0.0530126 -0.00238971 -0.00346159 
0.0549997 -0.00375903 -0.00346159 
0.0549299 -0.00389563 -0.00337433 
0.0528219 -0.00260097 -0.00325664 
0.0513188 -0.00063613 -0.00337433 
0.0564128 0.0131074 -0.0035144 
0.0542731 0.01209 -0.0035144 
0.0507218 0.00880894 -0.00325664 
0.0498885 0.00646512 -0.00325664 
0.0500168 0.00643768 -0.00337433 
0.0501668 0.00640561 -0.00346159 
0.0524696 0.0105536 -0.0035144 
0.0541815 0.0122315 -0.00346159 
0.0633369 0.0125538 -0.0035144 
0.0691109 0.00514555 0.0435212 
0.0681169 6.168e-05 0.0435212 
0.0516055 0.0110116 0.0435619 
0.0515819 0.0110321 0.0435212 
0.0501376 0.00885527 0.0435212 
0.0535404 0.012761 0.0435212 
0.0522306 0.0107693 -0.00337433 
0.0508386 0.00874923 -0.00337433 
0.0521332 0.0108572 -0.00325664 
0.0540981 0.0123603 -0.00337433 
0.0523445 0.0106665 -0.00346159 
0.0509752 0.00867942 -0.00346159 
0.0668243 0.00940601 -0.0035144 
0.0678416 0.00726632 -0.0035144 
0.068002 0.00731822 -0.00346159 
0.0670945 0.00958103 -0.00337433 
0.0681479 0.00736544 -0.00337433 
0.0672046 0.00965235 -0.00325664 
0.0655914 0.0115459 -0.00325664 
0.0654007 0.0113346 -0.00346159 
0.0669658 0.00949764 -0.00346159 
0.0655035 0.0114485 -0.00337433 
0.0652878 0.0112095 -0.0035144 
0.0634136 0.0127039 -0.00346159 
0.0674298 0.0100453 0.0435212 
0.0685929 0.0077061 0.0435212 
0.0657009 0.0120038 0.0435212 
0.0685633 0.00769594 0.0435619 
0.0598143 -0.00552518 0.0435212 
0.057207 -0.00536282 0.0435212 
0.0502024 0.00882361 0.0435932 
0.0501657 0.00884152 0.0435619 
0.051672 0.0109536 0.0436129 
0.0502908 0.00878036 0.0436196 
0.0517105 0.0109201 0.0436196 
0.0497298 0.00123424 0.0435932 
0.0491748 0.00377354 0.0435619 
0.0496912 0.001221 0.0435619 
0.0491436 0.0037714 0.0435212 
0.0496616 0.00121085 0.0435212 
0.0493059 0.00637877 0.0435212 
0.0493367 0.00637276 0.0435619 
0.0689408 0.00513385 0.0436196 
0.0689916 0.00513734 0.0436129 
0.069039 0.0051406 0.0435932 
0.0685247 0.00768271 0.0435932 
0.0689178 0.00254419 0.0435619 
0.0689485 0.00253818 0.0435212 
0.0690797 0.0051434 0.0435619 
0.0688312 0.00256112 0.0436129 
0.063524 0.0134481 0.0435212 
0.0635103 0.01342 0.0435619 
0.0684798 0.0076673 0.0436129 
0.0666726 -0.00211519 0.0435212 
0.0508247 -0.00112838 0.0435212 
0.0494233 0.00635583 0.0436129 
0.0492155 0.00377634 0.0435932 
0.0493767 0.00636494 0.0435932 
0.0492629 0.0037796 0.0436129 
0.0494733 0.00634605 0.0436196 
0.050245 0.00880274 0.0436129 
0.0493137 0.0037831 0.0436196 
0.0516362 0.0109848 0.0435932 
0.0535579 0.0127351 0.0435619 
0.0536071 0.0126618 0.0436129 
0.0535806 0.0127012 0.0435932 
0.0688778 0.00255201 0.0435932 
0.0679637 0.00013659 0.0436196 
0.066544 -0.00200319 0.0436196 
0.0687812 0.0025709 0.0436196 
0.0656536 0.0119495 0.0435932 
0.0656224 0.0119137 0.0436129 
0.0656804 0.0119802 0.0435619 
0.06737 0.0100051 0.0435932 
0.0674038 0.0100279 0.0435619 
0.0672883 0.00995013 0.0436196 
0.0673306 0.00997858 0.0436129 
0.0684316 0.00765076 0.0436196 
0.0646966 -0.00381812 0.0435619 
0.0647141 -0.00384408 0.0435212 
0.0623749 -0.00500716 0.0435212 
0.0666183 -0.00206785 0.0435932 
0.066649 -0.00209464 0.0435619 
0.0665824 -0.00203666 0.0436129 
0.0646474 -0.00374489 0.0436129 
0.0680095 0.0001142 0.0436129 
0.0680521 9.334e-05 0.0435932 
0.0680888 7.542e-05 0.0435619 
0.0623647 -0.00497757 0.0435619 
0.0646739 -0.00378429 0.0435932 
0.0572397 -0.00519547 0.0436196 
0.0525536 -0.00308687 0.0435212 
0.0547304 -0.00453116 0.0435212 
0.055903 0.0138559 0.0435932 
0.0623515 -0.004939 0.0435932 
0.0598122 -0.00549396 0.0435619 
0.0572208 -0.00529209 0.0435932 
0.0547442 -0.00450305 0.0435619 
0.057213 -0.00533211 0.0435619 
0.0623195 -0.00484588 0.0436196 
0.0646189 -0.00370261 0.0436196 
0.0508506 -0.00111091 0.0435619 
0.0525741 -0.00306328 0.0435619 
0.0634491 0.0132949 0.0436196 
0.0655889 0.0118753 0.0436196 
0.0536356 0.0126196 0.0436196 
0.0634715 0.0133407 0.0436129 
0.0584423 0.0144109 0.0435619 
0.0558898 0.0138945 0.0435619 
0.0558796 0.0139241 0.0435212 
0.0584402 0.0144421 0.0435212 
0.0610475 0.0142798 0.0435212 
0.0598061 -0.0054059 0.0436129 
0.0598026 -0.00535506 0.0436196 
0.0623361 -0.00489408 0.0436129 
0.0598094 -0.00545328 0.0435932 
0.0572299 -0.00524549 0.0436129 
0.0497747 0.00124965 0.0436129 
0.0498229 0.00126619 0.0436196 
0.0526321 -0.00299673 0.0436129 
0.054783 -0.00442376 0.0436129 
0.0547621 -0.00446642 0.0435932 
0.0526009 -0.00303253 0.0435932 
0.0548054 -0.00437798 0.0436196 
0.0526656 -0.0029583 0.0436196 
0.0508845 -0.00108814 0.0435932 
0.0509239 -0.00106163 0.0436129 
0.0509662 -0.00103318 0.0436196 
0.0610148 0.0141124 0.0436196 
0.0553554 -0.00109343 0.0437354 
0.0559349 0.0137628 0.0436196 
0.0548921 -0.00070814 0.043732 
0.0610337 0.014209 0.0435932 
0.0634924 0.0133834 0.0435932 
0.0610415 0.0142491 0.0435619 
0.0584484 0.0143228 0.0436129 
0.0610246 0.0141624 0.0436129 
0.0584451 0.0143702 0.0435932 
0.0584519 0.014272 0.0436196 
0.0559184 0.013811 0.0436129 
0.0599435 -0.00750402 0 
0.0568172 -0.00730422 0.0406102 
0.0599435 -0.00750402 0.0406102 
0.0568172 -0.00730422 0 
0.0709124 0.00214706 0 
0.0711122 0.00527331 0.0406102 
0.0709124 0.00214706 0.0406102 
0.0711122 0.00527331 0 
0.0681741 -0.00342847 0.0406102 
0.0658222 -0.00549778 0.0406102 
0.0658222 -0.00549778 0 
0.0681741 -0.00342847 0 
0.0670366 0.0135039 0 
0.0691059 0.0111521 0.0406102 
0.0670366 0.0135039 0.0406102 
0.0691059 0.0111521 0 
0.070496 0.00834475 0 
0.070496 0.00834475 0.0406102 
0.0644291 0.0152401 0.0406102 
0.0644291 0.0152401 0 
0.0614611 0.0162422 0 
0.0614611 0.0162422 0.0406102 
0.0491724 -0.00221406 0.0406102 
0.0512417 -0.00456594 0.0406102 
0.0512417 -0.00456594 0 
0.0491724 -0.00221406 0 
0.0630149 -0.00688788 0 
0.0630149 -0.00688788 0.0406102 
0.0477823 0.00059325 0 
0.0477823 0.00059325 0.0406102 
0.0471662 0.00366469 0.0406102 
0.0471662 0.00366469 0 
0.0699102 -0.00082096 0.0406102 
0.0699102 -0.00082096 0 
0.0583349 0.016442 0 
0.0583349 0.016442 0.0406102 
0.0552634 0.0158259 0.0406102 
0.0552634 0.0158259 0 
0.0538492 -0.00630209 0 
0.0538492 -0.00630209 0.0406102 
0.0524561 0.0144358 0 
0.0524561 0.0144358 0.0406102 
0.0501042 0.0123665 0.0406102 
0.0501042 0.0123665 0 
0.047366 0.00679094 0 
0.047366 0.00679094 0.0406102 
0.0483681 0.00975895 0 
0.0483681 0.00975895 0.0406102 
0.0676741 0.00721214 -0.00353037 
0.0573456 -0.00423043 -0.00353037 
0.0596615 -0.00441558 -0.00353037 
0.0587519 0.0133605 -0.00353037 
0.0610678 0.0131753 -0.00353037 
0.0679096 0.00261136 -0.00353037 
0.0671313 0.0004223 -0.00353037 
0.0551565 -0.0034522 -0.00353037 
0.0517368 -0.00036542 -0.00353037 
0.0507392 0.00173277 -0.00353037 
0.0632568 0.0123971 -0.00353037 
0.0532435 -0.00213392 -0.00353037 
0.0680947 0.00492724 -0.00353037 
0.065813 -0.00149075 -0.00353037 
0.0640445 -0.00299741 -0.00353037 
0.0651699 0.0110788 -0.00353037 
0.056467 0.0129399 -0.00353037 
0.0619463 -0.00399502 -0.00353037 
0.051282 0.0085226 -0.00353037 
0.0505038 0.00633355 -0.00353037 
0.0503186 0.00401766 -0.00353037 
0.0526003 0.0104357 -0.00353037 
0.0666765 0.00931033 -0.00353037 
0.0543688 0.0119423 -0.00353037 
3 229 2 251 
3 38 218 221 
3 62 234 225 
3 252 238 4 
3 252 55 255 
3 252 55 4 
3 8 38 221 
3 256 8 221 
3 37 244 218 
3 37 38 218 
3 1 229 228 
3 1 229 2 
3 14 13 2 
3 5 13 2 
3 5 222 251 
3 5 2 251 
3 12 230 237 
3 3 246 243 
3 36 244 228 
3 36 37 244 
3 36 1 228 
3 29 30 34 
3 53 262 249 
3 53 262 72 
3 11 238 4 
3 11 238 237 
3 11 12 237 
3 61 222 225 
3 61 5 222 
3 61 62 225 
3 264 262 72 
3 96 230 233 
3 96 12 230 
3 22 8 38 
3 22 40 23 
3 7 267 268 
3 7 267 273 
3 67 242 243 
3 67 3 243 
3 67 3 68 
3 31 29 15 
3 271 31 272 
3 271 31 43 
3 39 22 38 
3 39 22 40 
3 0 14 15 
3 0 29 15 
3 0 1 2 
3 0 14 2 
3 0 36 1 
3 0 33 36 
3 0 29 34 
3 0 33 34 
3 48 274 275 
3 48 274 27 
3 52 246 249 
3 52 53 249 
3 52 3 246 
3 52 3 68 
3 269 270 59 
3 269 282 69 
3 56 11 4 
3 56 55 4 
3 19 56 17 
3 60 5 13 
3 60 61 5 
3 71 264 261 
3 71 264 72 
3 276 270 59 
3 95 96 233 
3 95 234 233 
3 95 62 234 
3 99 12 20 
3 99 96 12 
3 6 7 268 
3 6 9 268 
3 6 9 40 
3 6 40 23 
3 6 7 23 
3 25 7 273 
3 25 65 23 
3 25 7 23 
3 21 67 242 
3 21 256 242 
3 21 256 8 
3 21 22 8 
3 279 31 272 
3 283 9 268 
3 283 280 30 
3 283 9 30 
3 35 30 34 
3 35 9 30 
3 35 9 40 
3 26 64 68 
3 51 48 27 
3 51 26 27 
3 51 26 68 
3 16 269 69 
3 16 269 59 
3 16 19 59 
3 16 19 17 
3 10 56 11 
3 10 19 56 
3 10 19 20 
3 10 12 20 
3 10 11 12 
3 44 60 13 
3 44 14 15 
3 44 14 13 
3 44 31 15 
3 44 31 43 
3 42 44 60 
3 78 223 235 
3 82 265 263 
3 50 53 72 
3 284 46 18 
3 284 285 46 
3 284 75 18 
3 57 16 69 
3 57 16 17 
3 57 56 17 
3 70 57 69 
3 58 87 55 
3 58 258 255 
3 58 55 255 
3 89 75 18 
3 89 46 18 
3 89 74 46 
3 101 19 59 
3 101 19 20 
3 101 99 20 
3 92 42 60 
3 66 21 67 
3 66 21 22 
3 66 65 23 
3 66 22 23 
3 24 25 65 
3 24 64 65 
3 24 277 273 
3 24 25 273 
3 24 26 27 
3 24 26 64 
3 24 277 274 
3 24 274 27 
3 28 29 30 
3 28 279 280 
3 28 280 30 
3 28 31 29 
3 28 279 31 
3 32 33 34 
3 32 35 34 
3 32 36 37 
3 32 33 36 
3 32 37 38 
3 32 39 38 
3 32 39 40 
3 32 35 40 
3 286 48 275 
3 286 47 48 
3 286 285 46 
3 286 47 46 
3 41 91 278 
3 41 92 91 
3 41 92 42 
3 41 271 278 
3 41 271 43 
3 41 44 43 
3 41 42 44 
3 125 223 224 
3 125 78 223 
3 81 265 260 
3 81 82 265 
3 117 240 247 
3 73 50 72 
3 73 50 74 
3 45 50 74 
3 45 74 46 
3 45 47 46 
3 45 50 51 
3 45 47 48 
3 45 51 48 
3 49 50 51 
3 49 52 68 
3 49 51 68 
3 49 52 53 
3 49 50 53 
3 287 284 75 
3 54 87 55 
3 54 57 87 
3 54 56 55 
3 54 57 56 
3 76 70 75 
3 76 57 87 
3 76 70 57 
3 86 258 261 
3 86 71 261 
3 86 58 258 
3 86 58 87 
3 77 276 59 
3 77 101 59 
3 94 92 60 
3 94 61 62 
3 94 60 61 
3 94 95 62 
3 63 64 65 
3 63 66 65 
3 63 66 67 
3 63 67 68 
3 63 64 68 
3 103 231 235 
3 103 78 235 
3 79 250 224 
3 79 125 224 
3 104 236 232 
3 157 226 227 
3 158 245 227 
3 158 157 227 
3 118 263 248 
3 118 82 263 
3 109 118 82 
3 109 118 119 
3 209 112 183 
3 137 209 139 
3 116 247 248 
3 116 117 247 
3 116 118 248 
3 83 259 260 
3 83 81 260 
3 188 253 254 
3 289 282 69 
3 289 70 69 
3 289 70 75 
3 289 287 75 
3 85 86 71 
3 85 71 72 
3 85 73 72 
3 85 89 74 
3 85 73 74 
3 88 89 75 
3 88 76 75 
3 88 76 87 
3 266 91 278 
3 98 94 92 
3 100 281 276 
3 100 77 276 
3 100 77 101 
3 123 122 105 
3 126 122 105 
3 126 103 78 
3 126 103 105 
3 126 125 78 
3 127 122 121 
3 127 120 121 
3 165 79 125 
3 152 103 105 
3 131 157 226 
3 131 250 226 
3 131 79 250 
3 131 165 79 
3 106 245 220 
3 106 158 245 
3 107 219 220 
3 107 106 220 
3 107 106 176 
3 135 109 119 
3 80 81 82 
3 80 109 82 
3 80 140 109 
3 80 140 141 
3 80 83 81 
3 80 83 141 
3 196 139 195 
3 196 209 139 
3 111 137 138 
3 111 209 112 
3 111 137 209 
3 132 240 241 
3 132 117 240 
3 132 179 117 
3 115 179 117 
3 187 188 254 
3 187 259 254 
3 187 83 259 
3 187 83 141 
3 84 85 86 
3 84 86 87 
3 84 88 87 
3 84 85 89 
3 84 88 89 
3 90 266 288 
3 90 266 91 
3 90 92 91 
3 90 98 92 
3 90 100 98 
3 90 288 281 
3 90 100 281 
3 93 94 95 
3 93 98 94 
3 93 98 99 
3 93 95 96 
3 93 99 96 
3 97 98 99 
3 97 100 98 
3 97 101 99 
3 97 100 101 
3 155 120 207 
3 144 126 122 
3 144 127 122 
3 147 120 207 
3 147 127 120 
3 128 236 239 
3 128 104 236 
3 128 129 104 
3 150 129 104 
3 184 182 149 
3 102 103 231 
3 102 152 103 
3 102 231 232 
3 102 104 232 
3 102 150 104 
3 102 150 152 
3 151 123 105 
3 151 152 105 
3 178 146 207 
3 178 162 146 
3 161 162 146 
3 173 158 166 
3 173 106 158 
3 173 106 176 
3 170 257 219 
3 170 107 219 
3 170 107 176 
3 108 135 138 
3 108 135 109 
3 108 140 138 
3 108 140 109 
3 110 140 138 
3 110 111 138 
3 110 111 112 
3 110 142 140 
3 110 112 183 
3 110 142 183 
3 205 196 209 
3 205 209 207 
3 136 139 195 
3 136 134 195 
3 113 134 195 
3 113 115 134 
3 113 203 195 
3 113 115 179 
3 113 203 179 
3 114 115 134 
3 114 116 117 
3 114 115 117 
3 114 118 119 
3 114 116 118 
3 114 135 119 
3 114 134 135 
3 130 120 121 
3 130 155 120 
3 130 122 121 
3 130 123 122 
3 130 151 123 
3 124 165 125 
3 124 144 165 
3 124 126 125 
3 124 144 126 
3 163 147 127 
3 163 144 127 
3 163 161 146 
3 189 253 239 
3 189 128 239 
3 189 188 253 
3 189 128 129 
3 189 212 129 
3 211 150 129 
3 211 184 149 
3 211 212 129 
3 154 182 149 
3 154 151 149 
3 154 130 155 
3 154 130 151 
3 160 131 157 
3 160 131 165 
3 192 178 162 
3 192 167 162 
3 168 201 207 
3 169 257 241 
3 169 170 257 
3 169 132 241 
3 169 132 179 
3 133 134 135 
3 133 136 134 
3 133 137 138 
3 133 135 138 
3 133 137 139 
3 133 136 139 
3 143 171 141 
3 143 140 141 
3 143 142 140 
3 186 187 141 
3 186 171 141 
3 217 142 183 
3 217 143 142 
3 217 143 171 
3 164 144 165 
3 164 163 144 
3 145 163 146 
3 145 163 147 
3 145 146 207 
3 145 147 207 
3 148 211 149 
3 148 211 150 
3 148 151 149 
3 148 150 152 
3 148 151 152 
3 153 154 182 
3 153 154 155 
3 153 182 207 
3 153 155 207 
3 156 160 157 
3 156 160 167 
3 156 167 166 
3 156 158 166 
3 156 158 157 
3 159 160 167 
3 159 161 162 
3 159 167 162 
3 159 163 161 
3 159 164 163 
3 159 160 165 
3 159 164 165 
3 172 173 166 
3 172 167 166 
3 172 192 167 
3 194 168 201 
3 191 194 168 
3 191 168 207 
3 180 169 179 
3 180 169 170 
3 175 170 176 
3 175 180 170 
3 175 180 199 
3 215 217 171 
3 215 186 171 
3 193 172 173 
3 193 172 192 
3 193 173 176 
3 174 194 199 
3 174 175 176 
3 174 175 199 
3 174 193 176 
3 174 193 194 
3 198 194 201 
3 198 194 199 
3 177 191 207 
3 177 191 192 
3 177 178 207 
3 177 192 178 
3 200 203 179 
3 200 180 179 
3 200 180 199 
3 181 182 207 
3 181 206 207 
3 181 184 182 
3 181 206 184 
3 208 209 183 
3 208 217 183 
3 214 206 184 
3 214 211 184 
3 185 215 186 
3 185 187 188 
3 185 186 187 
3 185 215 212 
3 185 189 188 
3 185 189 212 
3 190 191 192 
3 190 193 192 
3 190 191 194 
3 190 193 194 
3 204 203 195 
3 204 196 195 
3 204 205 196 
3 202 201 207 
3 202 205 207 
3 197 198 199 
3 197 200 199 
3 197 198 201 
3 197 202 201 
3 197 200 203 
3 197 204 203 
3 197 204 205 
3 197 202 205 
3 216 214 206 
3 216 206 207 
3 216 208 217 
3 216 209 207 
3 216 208 209 
3 210 211 212 
3 210 214 211 
3 210 215 212 
3 210 214 215 
3 213 214 215 
3 213 216 214 
3 213 215 217 
3 213 216 217 
3 218 219 220 
3 218 219 221 
3 222 223 224 
3 222 223 225 
3 226 227 228 
3 226 229 228 
3 230 231 232 
3 230 231 233 
3 234 223 235 
3 234 223 225 
3 234 231 235 
3 234 231 233 
3 236 230 232 
3 236 230 237 
3 238 236 239 
3 238 236 237 
3 240 242 241 
3 240 242 243 
3 244 245 227 
3 244 227 228 
3 244 218 220 
3 244 245 220 
3 246 247 248 
3 246 249 248 
3 246 240 247 
3 246 240 243 
3 250 222 224 
3 250 222 251 
3 250 226 229 
3 250 229 251 
3 252 253 254 
3 252 254 255 
3 252 253 239 
3 252 238 239 
3 256 219 221 
3 256 257 219 
3 256 257 241 
3 256 242 241 
3 258 259 254 
3 258 254 255 
3 258 259 260 
3 258 261 260 
3 262 263 248 
3 262 249 248 
3 264 261 260 
3 264 265 260 
3 264 262 263 
3 264 265 263 
3 266 267 268 
3 266 269 270 
3 266 271 272 
3 266 267 273 
3 266 274 275 
3 266 276 270 
3 266 277 274 
3 266 271 278 
3 266 279 280 
3 266 281 276 
3 266 269 282 
3 266 283 280 
3 266 284 285 
3 266 279 272 
3 266 283 268 
3 266 286 285 
3 266 287 284 
3 266 277 273 
3 266 286 275 
3 266 288 281 
3 266 289 287 
3 266 289 282 
