ply
format ascii 1.0
obj_info Pringles-00000.jpg
obj_info Pringles-00001.jpg
obj_info Pringles-00002.jpg
obj_info Pringles-00003.jpg
obj_info Pringles-00004.jpg
obj_info Pringles-00005.jpg
obj_info Pringles-00006.jpg
obj_info Pringles-00007.jpg
obj_info Pringles-00008.jpg
obj_info Pringles-00009.jpg
obj_info Pringles-00010.jpg
obj_info Pringles-00011.jpg
obj_info Pringles-00012.jpg
element vertex 130
property float x
property float y
property float z
property float nx
property float ny
property float nz
element face 96
property list uchar uint vertex_indices
element pass 13
property list uchar uint face_indices
property float m0
property float m1
property float m2
property float m3
property float m4
property float m5
property float m6
property float m7
property float m8
property float m9
property float m10
property float m11
property float m12
property float m13
property float m14
property float m15
property float x
property float y
property float w
property float h
property uchar tex_index
end_header
0.000000 0.000000 -0.115500 0.000000 0.000000 -1.000000
0.026870 0.026870 -0.115500 0.000000 0.000000 -1.000000
0.031596 0.021112 -0.115500 0.000000 0.000000 -1.000000
0.000000 0.000000 0.115500 0.000000 0.000000 1.000000
0.031596 0.021112 0.115500 0.000000 0.000000 1.000000
0.026870 0.026870 0.115500 0.000000 0.000000 1.000000
0.035107 0.014542 -0.115500 0.000000 0.000000 -1.000000
0.035107 0.014542 0.115500 0.000000 0.000000 1.000000
0.037270 0.007413 -0.115500 0.000000 0.000000 -1.000000
0.037270 0.007413 0.115500 0.000000 0.000000 1.000000
0.038000 0.000000 -0.115500 0.000000 0.000000 -1.000000
0.038000 -0.000000 0.115500 0.000000 0.000000 1.000000
0.037270 -0.007413 -0.115500 0.000000 0.000000 -1.000000
0.037270 -0.007413 0.115500 0.000000 0.000000 1.000000
0.035107 -0.014542 -0.115500 0.000000 0.000000 -1.000000
0.035107 -0.014542 0.115500 0.000000 0.000000 1.000000
0.031596 -0.021112 -0.115500 0.000000 0.000000 -1.000000
0.031596 -0.021112 0.115500 0.000000 0.000000 1.000000
0.026870 -0.026870 -0.115500 0.000000 0.000000 -1.000000
0.026870 -0.026870 0.115500 0.000000 0.000000 1.000000
0.021112 -0.031596 -0.115500 0.000000 0.000000 -1.000000
0.021112 -0.031596 0.115500 0.000000 0.000000 1.000000
0.014542 -0.035107 -0.115500 0.000000 0.000000 -1.000000
0.014542 -0.035107 0.115500 0.000000 0.000000 1.000000
0.007413 -0.037270 -0.115500 0.000000 0.000000 -1.000000
0.007413 -0.037270 0.115500 0.000000 0.000000 1.000000
-0.000000 -0.038000 -0.115500 0.000000 0.000000 -1.000000
0.000000 -0.038000 0.115500 0.000000 0.000000 1.000000
-0.007413 -0.037270 -0.115500 0.000000 0.000000 -1.000000
-0.007413 -0.037270 0.115500 0.000000 0.000000 1.000000
-0.014542 -0.035107 -0.115500 0.000000 0.000000 -1.000000
-0.014542 -0.035107 0.115500 0.000000 0.000000 1.000000
-0.021112 -0.031596 -0.115500 0.000000 0.000000 -1.000000
-0.021112 -0.031596 0.115500 0.000000 0.000000 1.000000
-0.026870 -0.026870 -0.115500 0.000000 0.000000 -1.000000
-0.026870 -0.026870 0.115500 0.000000 0.000000 1.000000
-0.031596 -0.021112 -0.115500 0.000000 0.000000 -1.000000
-0.031596 -0.021112 0.115500 0.000000 0.000000 1.000000
-0.035107 -0.014542 -0.115500 0.000000 0.000000 -1.000000
-0.035107 -0.014542 0.115500 0.000000 0.000000 1.000000
-0.037270 -0.007413 -0.115500 0.000000 0.000000 -1.000000
-0.037270 -0.007414 0.115500 0.000000 0.000000 1.000000
-0.038000 0.000000 -0.115500 0.000000 0.000000 -1.000000
-0.038000 -0.000000 0.115500 0.000000 0.000000 1.000000
-0.037270 0.007413 -0.115500 0.000000 0.000000 -1.000000
-0.037270 0.007413 0.115500 0.000000 0.000000 1.000000
-0.035107 0.014542 -0.115500 0.000000 0.000000 -1.000000
-0.035107 0.014542 0.115500 0.000000 0.000000 1.000000
-0.031596 0.021112 -0.115500 0.000000 0.000000 -1.000000
-0.031596 0.021111 0.115500 0.000000 0.000000 1.000000
-0.026870 0.026870 -0.115500 0.000000 0.000000 -1.000000
-0.026870 0.026870 0.115500 0.000000 0.000000 1.000000
-0.021112 0.031596 -0.115500 0.000000 0.000000 -1.000000
-0.021112 0.031596 0.115500 0.000000 0.000000 1.000000
-0.014542 0.035107 -0.115500 0.000000 0.000000 -1.000000
-0.014542 0.035107 0.115500 0.000000 0.000000 1.000000
-0.007413 0.037270 -0.115500 0.000000 0.000000 -1.000000
-0.007414 0.037270 0.115500 0.000000 0.000000 1.000000
0.000000 0.038000 -0.115500 0.000000 0.000000 -1.000000
-0.000000 0.038000 0.115500 0.000000 0.000000 1.000000
0.007413 0.037270 -0.115500 0.000000 0.000000 -1.000000
0.007413 0.037270 0.115500 0.000000 0.000000 1.000000
0.014542 0.035107 -0.115500 0.000000 0.000000 -1.000000
0.014542 0.035108 0.115500 0.000000 0.000000 1.000000
0.021112 0.031596 -0.115500 0.000000 0.000000 -1.000000
0.021111 0.031596 0.115500 0.000000 0.000000 1.000000
0.026870 0.026870 -0.115500 0.707083 0.707083 0.000000
0.026870 0.026870 0.115500 0.707083 0.707083 0.000000
0.031596 0.021112 0.115500 0.831446 0.555559 0.000000
0.031596 0.021112 -0.115500 0.831446 0.555559 0.000000
0.035107 0.014542 0.115500 0.923856 0.382672 0.000000
0.035107 0.014542 -0.115500 0.923856 0.382672 0.000000
0.037270 0.007413 0.115500 0.980773 0.195074 0.000000
0.037270 0.007413 -0.115500 0.980773 0.195074 0.000000
0.038000 -0.000000 0.115500 1.000000 0.000000 0.000000
0.038000 0.000000 -0.115500 1.000000 0.000000 0.000000
0.037270 -0.007413 0.115500 0.980773 -0.195074 0.000000
0.037270 -0.007413 -0.115500 0.980773 -0.195074 0.000000
0.035107 -0.014542 0.115500 0.923856 -0.382672 0.000000
0.035107 -0.014542 -0.115500 0.923856 -0.382672 0.000000
0.031596 -0.021112 0.115500 0.831446 -0.555559 0.000000
0.031596 -0.021112 -0.115500 0.831446 -0.555559 0.000000
0.026870 -0.026870 0.115500 0.707083 -0.707083 0.000000
0.026870 -0.026870 -0.115500 0.707083 -0.707083 0.000000
0.021112 -0.031596 0.115500 0.555559 -0.831446 0.000000
0.021112 -0.031596 -0.115500 0.555559 -0.831446 0.000000
0.014542 -0.035107 0.115500 0.382672 -0.923856 0.000000
0.014542 -0.035107 -0.115500 0.382672 -0.923856 0.000000
0.007413 -0.037270 0.115500 0.195074 -0.980773 0.000000
0.007413 -0.037270 -0.115500 0.195074 -0.980773 0.000000
0.000000 -0.038000 0.115500 0.000000 -1.000000 0.000000
-0.000000 -0.038000 -0.115500 0.000000 -1.000000 0.000000
-0.007413 -0.037270 0.115500 -0.195074 -0.980773 0.000000
-0.007413 -0.037270 -0.115500 -0.195074 -0.980773 0.000000
-0.014542 -0.035107 0.115500 -0.382672 -0.923856 0.000000
-0.014542 -0.035107 -0.115500 -0.382672 -0.923856 0.000000
-0.021112 -0.031596 0.115500 -0.555559 -0.831446 0.000000
-0.021112 -0.031596 -0.115500 -0.555559 -0.831446 0.000000
-0.026870 -0.026870 0.115500 -0.707083 -0.707083 0.000000
-0.026870 -0.026870 -0.115500 -0.707083 -0.707083 0.000000
-0.031596 -0.021112 0.115500 -0.831446 -0.555559 0.000000
-0.031596 -0.021112 -0.115500 -0.831446 -0.555559 0.000000
-0.035107 -0.014542 0.115500 -0.923856 -0.382672 0.000000
-0.035107 -0.014542 -0.115500 -0.923856 -0.382672 0.000000
-0.037270 -0.007414 0.115500 -0.980773 -0.195074 0.000000
-0.037270 -0.007413 -0.115500 -0.980773 -0.195074 0.000000
-0.038000 -0.000000 0.115500 -1.000000 0.000000 0.000000
-0.038000 0.000000 -0.115500 -1.000000 0.000000 0.000000
-0.037270 0.007413 0.115500 -0.980773 0.195074 0.000000
-0.037270 0.007413 -0.115500 -0.980773 0.195074 0.000000
-0.035107 0.014542 0.115500 -0.923856 0.382672 0.000000
-0.035107 0.014542 -0.115500 -0.923856 0.382672 0.000000
-0.031596 0.021111 0.115500 -0.831446 0.555559 0.000000
-0.031596 0.021112 -0.115500 -0.831446 0.555559 0.000000
-0.026870 0.026870 0.115500 -0.707083 0.707083 0.000000
-0.026870 0.026870 -0.115500 -0.707083 0.707083 0.000000
-0.021112 0.031596 0.115500 -0.555559 0.831446 0.000000
-0.021112 0.031596 -0.115500 -0.555559 0.831446 0.000000
-0.014542 0.035107 0.115500 -0.382672 0.923856 0.000000
-0.014542 0.035107 -0.115500 -0.382672 0.923856 0.000000
-0.007414 0.037270 0.115500 -0.195074 0.980773 0.000000
-0.007413 0.037270 -0.115500 -0.195074 0.980773 0.000000
-0.000000 0.038000 0.115500 0.000000 1.000000 0.000000
0.000000 0.038000 -0.115500 0.000000 1.000000 0.000000
0.007413 0.037270 0.115500 0.195074 0.980773 0.000000
0.007413 0.037270 -0.115500 0.195074 0.980773 0.000000
0.014542 0.035108 0.115500 0.382672 0.923856 0.000000
0.014542 0.035107 -0.115500 0.382672 0.923856 0.000000
0.021111 0.031596 0.115500 0.555559 0.831446 0.000000
0.021112 0.031596 -0.115500 0.555559 0.831446 0.000000
3 0 1 2
3 3 4 5
3 0 2 6
3 3 7 4
3 0 6 8
3 3 9 7
3 0 8 10
3 3 11 9
3 0 10 12
3 3 13 11
3 0 12 14
3 3 15 13
3 0 14 16
3 3 17 15
3 0 16 18
3 3 19 17
3 0 18 20
3 3 21 19
3 0 20 22
3 3 23 21
3 0 22 24
3 3 25 23
3 0 24 26
3 3 27 25
3 0 26 28
3 3 29 27
3 0 28 30
3 3 31 29
3 0 30 32
3 3 33 31
3 0 32 34
3 3 35 33
3 0 34 36
3 3 37 35
3 0 36 38
3 3 39 37
3 0 38 40
3 3 41 39
3 0 40 42
3 3 43 41
3 0 42 44
3 3 45 43
3 0 44 46
3 3 47 45
3 0 46 48
3 3 49 47
3 0 48 50
3 3 51 49
3 0 50 52
3 3 53 51
3 0 52 54
3 3 55 53
3 0 54 56
3 3 57 55
3 0 56 58
3 3 59 57
3 0 58 60
3 3 61 59
3 0 60 62
3 3 63 61
3 0 62 64
3 3 65 63
3 1 0 64
3 3 5 65
4 66 67 68 69
4 69 68 70 71
4 71 70 72 73
4 73 72 74 75
4 75 74 76 77
4 77 76 78 79
4 79 78 80 81
4 81 80 82 83
4 83 82 84 85
4 85 84 86 87
4 87 86 88 89
4 89 88 90 91
4 91 90 92 93
4 93 92 94 95
4 95 94 96 97
4 97 96 98 99
4 99 98 100 101
4 101 100 102 103
4 103 102 104 105
4 105 104 106 107
4 107 106 108 109
4 109 108 110 111
4 111 110 112 113
4 113 112 114 115
4 115 114 116 117
4 117 116 118 119
4 119 118 120 121
4 121 120 122 123
4 123 122 124 125
4 125 124 126 127
4 127 126 128 129
4 67 66 129 128
6 74 75 76 77 78 79 1.770146 0.178308 0.092166 0.088551 -0.205574 1.225240 0.884272 0.849595 -0.031433 2.028398 -0.541172 -0.519949 0.102061 0.086664 0.372585 0.554052 0.554043 0.332754 0.087096 0.469332 0
3 71 72 73 1.520116 -0.617494 -0.472342 -0.453819 0.930299 1.055740 0.757794 0.728076 -0.021347 2.037528 -0.534733 -0.513763 0.119736 0.061625 0.357742 0.539791 0.598459 0.305749 0.063118 0.477295 1
3 68 69 70 0.694068 -1.139239 -0.819365 -0.787233 1.641378 0.516807 0.335990 0.322814 -0.028493 2.020508 -0.546855 -0.525410 0.124625 0.062749 0.358928 0.540931 0.601059 0.308417 0.062941 0.472295 2
2 66 67 0.175289 -1.108496 -0.915455 -0.879555 1.773568 0.133041 0.084098 0.080800 -0.019855 2.097842 -0.488025 -0.468887 0.130435 0.063178 0.380488 0.561645 0.619673 0.310050 0.047858 0.470931 3
3 80 81 82 1.481787 0.721706 0.483889 0.464913 -0.990019 1.021257 0.741837 0.712746 -0.028877 2.020787 -0.546651 -0.525213 0.136793 0.079636 0.368318 0.549952 0.578436 0.326763 0.052936 0.471694 4
2 83 84 1.113945 1.006427 0.682342 0.655584 -1.390943 0.758613 0.560586 0.538602 -0.032720 2.014700 -0.550864 -0.529262 0.145148 0.087022 0.373853 0.555271 0.581464 0.339441 0.036810 0.464373 5
3 85 86 87 0.171939 1.291720 0.868252 0.834203 -1.773720 0.089312 0.095281 0.091544 -0.031960 1.992709 -0.566003 -0.543807 0.156276 0.080528 0.364730 0.546505 0.591360 0.329756 0.055378 0.470388 6
2 88 89 -0.628353 1.174003 0.827978 0.795509 -1.667295 -0.495790 -0.296257 -0.284639 -0.044342 2.005820 -0.556760 -0.534927 0.157175 0.081424 0.370513 0.552062 0.595309 0.333184 0.039256 0.464030 7
2 90 91 -1.260917 0.882990 0.626726 0.602149 -1.258211 -0.979926 -0.599095 -0.575601 -0.060494 1.976734 -0.575845 -0.553263 0.158399 0.079207 0.362343 0.544212 0.600278 0.330486 0.038835 0.464301 8
3 92 93 94 -1.752100 0.171788 0.176357 0.169441 -0.321154 -1.309825 -0.848293 -0.815027 -0.060580 1.975412 -0.576711 -0.554095 0.157734 0.075161 0.362955 0.544800 0.600229 0.324539 0.053755 0.464980 9
3 64 65 95 -1.441400 -0.819352 -0.495571 -0.476137 1.047211 -1.035714 -0.710548 -0.682684 -0.048796 1.975693 -0.576913 -0.554289 0.162239 0.074684 0.364410 0.546198 0.613524 0.324117 0.063214 0.460221 10
32 1 3 5 7 9 11 13 15 17 19 21 23 25 27 29 31 33 35 37 39 41 43 45 47 49 51 53 55 57 59 61 63 1.764642 -0.331403 -0.018816 -0.018078 0.230068 2.031567 0.523678 0.503142 0.098863 1.187566 -0.899281 -0.864015 0.142881 -0.017499 0.272938 0.458313 0.621439 0.561083 0.187862 0.201020 11
32 0 2 4 6 8 10 12 14 16 18 20 22 24 26 28 30 32 34 36 38 40 42 44 46 48 50 52 54 56 58 60 62 1.743355 0.426825 -0.109827 -0.105520 0.357284 -1.616475 0.733047 0.704300 -0.098628 1.688856 0.730670 0.702016 0.247239 0.249196 0.360633 0.542569 0.706644 0.490505 0.148433 0.144772 12
