ply
format ascii 1.0
obj_info Pringoals-00000.jpg
obj_info Pringoals-00001.jpg
obj_info Pringoals-00002.jpg
obj_info Pringoals-00003.jpg
obj_info Pringoals-00004.jpg
obj_info Pringoals-00005.jpg
obj_info Pringoals-00006.jpg
obj_info Pringoals-00007.jpg
obj_info Pringoals-00008.jpg
obj_info Pringoals-00009.jpg
obj_info Pringoals-00010.jpg
obj_info Pringoals-00011.jpg
obj_info Pringoals-00012.jpg
element vertex 130
property float x
property float y
property float z
property float nx
property float ny
property float nz
element face 96
property list uchar uint vertex_indices
element pass 13
property list uchar uint face_indices
property float m0
property float m1
property float m2
property float m3
property float m4
property float m5
property float m6
property float m7
property float m8
property float m9
property float m10
property float m11
property float m12
property float m13
property float m14
property float m15
property float x
property float y
property float w
property float h
property uchar tex_index
end_header
0.000000 0.000000 -0.115500 0.000000 0.000000 -1.000000
0.026870 0.026870 -0.115500 0.000000 0.000000 -1.000000
0.031596 0.021112 -0.115500 0.000000 0.000000 -1.000000
0.000000 0.000000 0.115500 0.000000 0.000000 1.000000
0.031596 0.021112 0.115500 0.000000 0.000000 1.000000
0.026870 0.026870 0.115500 0.000000 0.000000 1.000000
0.035107 0.014542 -0.115500 0.000000 0.000000 -1.000000
0.035107 0.014542 0.115500 0.000000 0.000000 1.000000
0.037270 0.007413 -0.115500 0.000000 0.000000 -1.000000
0.037270 0.007413 0.115500 0.000000 0.000000 1.000000
0.038000 0.000000 -0.115500 0.000000 0.000000 -1.000000
0.038000 -0.000000 0.115500 0.000000 0.000000 1.000000
0.037270 -0.007413 -0.115500 0.000000 0.000000 -1.000000
0.037270 -0.007413 0.115500 0.000000 0.000000 1.000000
0.035107 -0.014542 -0.115500 0.000000 0.000000 -1.000000
0.035107 -0.014542 0.115500 0.000000 0.000000 1.000000
0.031596 -0.021112 -0.115500 0.000000 0.000000 -1.000000
0.031596 -0.021112 0.115500 0.000000 0.000000 1.000000
0.026870 -0.026870 -0.115500 0.000000 0.000000 -1.000000
0.026870 -0.026870 0.115500 0.000000 0.000000 1.000000
0.021112 -0.031596 -0.115500 0.000000 0.000000 -1.000000
0.021112 -0.031596 0.115500 0.000000 0.000000 1.000000
0.014542 -0.035107 -0.115500 0.000000 0.000000 -1.000000
0.014542 -0.035107 0.115500 0.000000 0.000000 1.000000
0.007413 -0.037270 -0.115500 0.000000 0.000000 -1.000000
0.007413 -0.037270 0.115500 0.000000 0.000000 1.000000
-0.000000 -0.038000 -0.115500 0.000000 0.000000 -1.000000
0.000000 -0.038000 0.115500 0.000000 0.000000 1.000000
-0.007413 -0.037270 -0.115500 0.000000 0.000000 -1.000000
-0.007413 -0.037270 0.115500 0.000000 0.000000 1.000000
-0.014542 -0.035107 -0.115500 0.000000 0.000000 -1.000000
-0.014542 -0.035107 0.115500 0.000000 0.000000 1.000000
-0.021112 -0.031596 -0.115500 0.000000 0.000000 -1.000000
-0.021112 -0.031596 0.115500 0.000000 0.000000 1.000000
-0.026870 -0.026870 -0.115500 0.000000 0.000000 -1.000000
-0.026870 -0.026870 0.115500 0.000000 0.000000 1.000000
-0.031596 -0.021112 -0.115500 0.000000 0.000000 -1.000000
-0.031596 -0.021112 0.115500 0.000000 0.000000 1.000000
-0.035107 -0.014542 -0.115500 0.000000 0.000000 -1.000000
-0.035107 -0.014542 0.115500 0.000000 0.000000 1.000000
-0.037270 -0.007413 -0.115500 0.000000 0.000000 -1.000000
-0.037270 -0.007414 0.115500 0.000000 0.000000 1.000000
-0.038000 0.000000 -0.115500 0.000000 0.000000 -1.000000
-0.038000 -0.000000 0.115500 0.000000 0.000000 1.000000
-0.037270 0.007413 -0.115500 0.000000 0.000000 -1.000000
-0.037270 0.007413 0.115500 0.000000 0.000000 1.000000
-0.035107 0.014542 -0.115500 0.000000 0.000000 -1.000000
-0.035107 0.014542 0.115500 0.000000 0.000000 1.000000
-0.031596 0.021112 -0.115500 0.000000 0.000000 -1.000000
-0.031596 0.021111 0.115500 0.000000 0.000000 1.000000
-0.026870 0.026870 -0.115500 0.000000 0.000000 -1.000000
-0.026870 0.026870 0.115500 0.000000 0.000000 1.000000
-0.021112 0.031596 -0.115500 0.000000 0.000000 -1.000000
-0.021112 0.031596 0.115500 0.000000 0.000000 1.000000
-0.014542 0.035107 -0.115500 0.000000 0.000000 -1.000000
-0.014542 0.035107 0.115500 0.000000 0.000000 1.000000
-0.007413 0.037270 -0.115500 0.000000 0.000000 -1.000000
-0.007414 0.037270 0.115500 0.000000 0.000000 1.000000
0.000000 0.038000 -0.115500 0.000000 0.000000 -1.000000
-0.000000 0.038000 0.115500 0.000000 0.000000 1.000000
0.007413 0.037270 -0.115500 0.000000 0.000000 -1.000000
0.007413 0.037270 0.115500 0.000000 0.000000 1.000000
0.014542 0.035107 -0.115500 0.000000 0.000000 -1.000000
0.014542 0.035108 0.115500 0.000000 0.000000 1.000000
0.021112 0.031596 -0.115500 0.000000 0.000000 -1.000000
0.021111 0.031596 0.115500 0.000000 0.000000 1.000000
0.026870 0.026870 -0.115500 0.707083 0.707083 0.000000
0.026870 0.026870 0.115500 0.707083 0.707083 0.000000
0.031596 0.021112 0.115500 0.831446 0.555559 0.000000
0.031596 0.021112 -0.115500 0.831446 0.555559 0.000000
0.035107 0.014542 0.115500 0.923856 0.382672 0.000000
0.035107 0.014542 -0.115500 0.923856 0.382672 0.000000
0.037270 0.007413 0.115500 0.980773 0.195074 0.000000
0.037270 0.007413 -0.115500 0.980773 0.195074 0.000000
0.038000 -0.000000 0.115500 1.000000 0.000000 0.000000
0.038000 0.000000 -0.115500 1.000000 0.000000 0.000000
0.037270 -0.007413 0.115500 0.980773 -0.195074 0.000000
0.037270 -0.007413 -0.115500 0.980773 -0.195074 0.000000
0.035107 -0.014542 0.115500 0.923856 -0.382672 0.000000
0.035107 -0.014542 -0.115500 0.923856 -0.382672 0.000000
0.031596 -0.021112 0.115500 0.831446 -0.555559 0.000000
0.031596 -0.021112 -0.115500 0.831446 -0.555559 0.000000
0.026870 -0.026870 0.115500 0.707083 -0.707083 0.000000
0.026870 -0.026870 -0.115500 0.707083 -0.707083 0.000000
0.021112 -0.031596 0.115500 0.555559 -0.831446 0.000000
0.021112 -0.031596 -0.115500 0.555559 -0.831446 0.000000
0.014542 -0.035107 0.115500 0.382672 -0.923856 0.000000
0.014542 -0.035107 -0.115500 0.382672 -0.923856 0.000000
0.007413 -0.037270 0.115500 0.195074 -0.980773 0.000000
0.007413 -0.037270 -0.115500 0.195074 -0.980773 0.000000
0.000000 -0.038000 0.115500 0.000000 -1.000000 0.000000
-0.000000 -0.038000 -0.115500 0.000000 -1.000000 0.000000
-0.007413 -0.037270 0.115500 -0.195074 -0.980773 0.000000
-0.007413 -0.037270 -0.115500 -0.195074 -0.980773 0.000000
-0.014542 -0.035107 0.115500 -0.382672 -0.923856 0.000000
-0.014542 -0.035107 -0.115500 -0.382672 -0.923856 0.000000
-0.021112 -0.031596 0.115500 -0.555559 -0.831446 0.000000
-0.021112 -0.031596 -0.115500 -0.555559 -0.831446 0.000000
-0.026870 -0.026870 0.115500 -0.707083 -0.707083 0.000000
-0.026870 -0.026870 -0.115500 -0.707083 -0.707083 0.000000
-0.031596 -0.021112 0.115500 -0.831446 -0.555559 0.000000
-0.031596 -0.021112 -0.115500 -0.831446 -0.555559 0.000000
-0.035107 -0.014542 0.115500 -0.923856 -0.382672 0.000000
-0.035107 -0.014542 -0.115500 -0.923856 -0.382672 0.000000
-0.037270 -0.007414 0.115500 -0.980773 -0.195074 0.000000
-0.037270 -0.007413 -0.115500 -0.980773 -0.195074 0.000000
-0.038000 -0.000000 0.115500 -1.000000 0.000000 0.000000
-0.038000 0.000000 -0.115500 -1.000000 0.000000 0.000000
-0.037270 0.007413 0.115500 -0.980773 0.195074 0.000000
-0.037270 0.007413 -0.115500 -0.980773 0.195074 0.000000
-0.035107 0.014542 0.115500 -0.923856 0.382672 0.000000
-0.035107 0.014542 -0.115500 -0.923856 0.382672 0.000000
-0.031596 0.021111 0.115500 -0.831446 0.555559 0.000000
-0.031596 0.021112 -0.115500 -0.831446 0.555559 0.000000
-0.026870 0.026870 0.115500 -0.707083 0.707083 0.000000
-0.026870 0.026870 -0.115500 -0.707083 0.707083 0.000000
-0.021112 0.031596 0.115500 -0.555559 0.831446 0.000000
-0.021112 0.031596 -0.115500 -0.555559 0.831446 0.000000
-0.014542 0.035107 0.115500 -0.382672 0.923856 0.000000
-0.014542 0.035107 -0.115500 -0.382672 0.923856 0.000000
-0.007414 0.037270 0.115500 -0.195074 0.980773 0.000000
-0.007413 0.037270 -0.115500 -0.195074 0.980773 0.000000
-0.000000 0.038000 0.115500 0.000000 1.000000 0.000000
0.000000 0.038000 -0.115500 0.000000 1.000000 0.000000
0.007413 0.037270 0.115500 0.195074 0.980773 0.000000
0.007413 0.037270 -0.115500 0.195074 0.980773 0.000000
0.014542 0.035108 0.115500 0.382672 0.923856 0.000000
0.014542 0.035107 -0.115500 0.382672 0.923856 0.000000
0.021111 0.031596 0.115500 0.555559 0.831446 0.000000
0.021112 0.031596 -0.115500 0.555559 0.831446 0.000000
3 0 1 2
3 3 4 5
3 0 2 6
3 3 7 4
3 0 6 8
3 3 9 7
3 0 8 10
3 3 11 9
3 0 10 12
3 3 13 11
3 0 12 14
3 3 15 13
3 0 14 16
3 3 17 15
3 0 16 18
3 3 19 17
3 0 18 20
3 3 21 19
3 0 20 22
3 3 23 21
3 0 22 24
3 3 25 23
3 0 24 26
3 3 27 25
3 0 26 28
3 3 29 27
3 0 28 30
3 3 31 29
3 0 30 32
3 3 33 31
3 0 32 34
3 3 35 33
3 0 34 36
3 3 37 35
3 0 36 38
3 3 39 37
3 0 38 40
3 3 41 39
3 0 40 42
3 3 43 41
3 0 42 44
3 3 45 43
3 0 44 46
3 3 47 45
3 0 46 48
3 3 49 47
3 0 48 50
3 3 51 49
3 0 50 52
3 3 53 51
3 0 52 54
3 3 55 53
3 0 54 56
3 3 57 55
3 0 56 58
3 3 59 57
3 0 58 60
3 3 61 59
3 0 60 62
3 3 63 61
3 0 62 64
3 3 65 63
3 1 0 64
3 3 5 65
4 66 67 68 69
4 69 68 70 71
4 71 70 72 73
4 73 72 74 75
4 75 74 76 77
4 77 76 78 79
4 79 78 80 81
4 81 80 82 83
4 83 82 84 85
4 85 84 86 87
4 87 86 88 89
4 89 88 90 91
4 91 90 92 93
4 93 92 94 95
4 95 94 96 97
4 97 96 98 99
4 99 98 100 101
4 101 100 102 103
4 103 102 104 105
4 105 104 106 107
4 107 106 108 109
4 109 108 110 111
4 111 110 112 113
4 113 112 114 115
4 115 114 116 117
4 117 116 118 119
4 119 118 120 121
4 121 120 122 123
4 123 122 124 125
4 125 124 126 127
4 127 126 128 129
4 67 66 129 128
7 67 68 69 70 71 72 73 0.628809 -1.193385 -0.822530 -0.790274 1.667106 0.503864 0.294006 0.282476 -0.044966 1.992325 -0.565954 -0.543760 0.110671 0.047498 0.336987 0.519850 0.559227 0.289545 0.105162 0.488862 0
3 64 65 66 -0.519312 -1.254896 -0.830430 -0.797864 1.704161 -0.320376 -0.271622 -0.260970 -0.053056 1.992486 -0.565603 -0.543423 0.105246 0.046910 0.339006 0.521790 0.594642 0.289859 0.057428 0.482701 1
3 74 75 76 1.579085 -0.584319 -0.410270 -0.394181 0.826514 1.130296 0.778004 0.747494 -0.005740 2.007089 -0.556495 -0.534672 0.118897 0.048350 0.345621 0.528145 0.568190 0.292403 0.060926 0.482115 2
3 77 78 79 1.778197 0.111985 0.050126 0.048160 -0.119378 1.326834 0.861231 0.827457 -0.020698 1.968343 -0.582295 -0.559459 0.122080 0.050268 0.336213 0.519107 0.571312 0.294258 0.059751 0.482972 3
2 80 81 1.623706 0.572793 0.347666 0.334032 -0.734549 1.195935 0.791368 0.760334 -0.026154 1.972068 -0.579796 -0.557059 0.120401 0.052871 0.340048 0.522791 0.568309 0.300593 0.040640 0.478455 4
3 93 94 95 -1.384349 -0.872699 -0.532234 -0.511362 1.121576 -0.992536 -0.683122 -0.656333 -0.048060 1.975012 -0.577382 -0.554739 0.135761 0.047985 0.337294 0.520145 0.621419 0.291759 0.067619 0.480127 5
2 91 92 -1.717218 -0.401094 -0.215687 -0.207228 0.474936 -1.251787 -0.840841 -0.807867 -0.047607 1.979788 -0.574251 -0.551732 0.143987 0.044714 0.337028 0.519890 0.639914 0.288414 0.057611 0.480183 6
2 89 90 -1.774662 0.073171 0.091837 0.088236 -0.161327 -1.242393 -0.882628 -0.848015 -0.034863 2.024478 -0.543904 -0.522575 0.141010 0.041423 0.347172 0.529636 0.636427 0.285515 0.055748 0.480530 7
1 88 -1.647450 0.418937 0.353252 0.339399 -0.679570 -1.099107 -0.833189 -0.800515 -0.027482 2.064912 -0.514108 -0.493946 0.149629 0.031148 0.350382 0.532720 0.649030 0.274883 0.044730 0.482235 8
3 85 86 87 -1.184947 0.883660 0.675253 0.648773 -1.331083 -0.829676 -0.588743 -0.565655 -0.028023 2.044061 -0.529824 -0.509046 0.154137 0.021559 0.336700 0.519575 0.640587 0.261270 0.073559 0.491459 9
2 83 84 -0.352731 1.241012 0.864046 0.830162 -1.746686 -0.292537 -0.161907 -0.155558 -0.036516 2.005422 -0.557233 -0.535381 0.182253 0.011258 0.320534 0.504042 0.674854 0.248224 0.072627 0.492795 10
32 1 3 5 7 9 11 13 15 17 19 21 23 25 27 29 31 33 35 37 39 41 43 45 47 49 51 53 55 57 59 61 63 0.010385 2.212002 0.381216 0.366267 -1.779002 -0.039864 0.061929 0.059500 -0.108211 0.867675 -0.966508 -0.928605 0.222131 -0.056772 0.281885 0.466909 0.696220 0.441268 0.192617 0.229382 11
1 82 1.104620 0.928914 0.708080 0.680312 -1.398742 0.734473 0.560128 0.538162 0.000601 2.060357 -0.517860 -0.497551 0.205140 0.027601 0.348128 0.530555 0.655967 0.272014 0.055609 0.482082 12
