ply
format ascii 1.0
obj_info Pringles-00000.jpg
obj_info Pringles-00001.jpg
obj_info Pringles-00002.jpg
obj_info Pringles-00003.jpg
obj_info Pringles-00004.jpg
obj_info Pringles-00005.jpg
obj_info Pringles-00006.jpg
obj_info Pringles-00007.jpg
obj_info Pringles-00008.jpg
obj_info Pringles-00009.jpg
obj_info Pringles-00010.jpg
obj_info Pringles-00011.jpg
obj_info Pringles-00012.jpg
obj_info Pringles-00013.jpg
obj_info Pringles-00014.jpg
element vertex 130
property float x
property float y
property float z
property float nx
property float ny
property float nz
element face 96
property list uchar uint vertex_indices
element pass 15
property list uchar uint face_indices
property float m0
property float m1
property float m2
property float m3
property float m4
property float m5
property float m6
property float m7
property float m8
property float m9
property float m10
property float m11
property float m12
property float m13
property float m14
property float m15
property float x
property float y
property float w
property float h
property uchar tex_index
end_header
0.000000 0.000000 -0.115500 0.000000 0.000000 -1.000000
0.026870 0.026870 -0.115500 0.000000 0.000000 -1.000000
0.031596 0.021112 -0.115500 0.000000 0.000000 -1.000000
0.000000 0.000000 0.115500 0.000000 0.000000 1.000000
0.031596 0.021112 0.115500 0.000000 0.000000 1.000000
0.026870 0.026870 0.115500 0.000000 0.000000 1.000000
0.035107 0.014542 -0.115500 0.000000 0.000000 -1.000000
0.035107 0.014542 0.115500 0.000000 0.000000 1.000000
0.037270 0.007413 -0.115500 0.000000 0.000000 -1.000000
0.037270 0.007413 0.115500 0.000000 0.000000 1.000000
0.038000 0.000000 -0.115500 0.000000 0.000000 -1.000000
0.038000 -0.000000 0.115500 0.000000 0.000000 1.000000
0.037270 -0.007413 -0.115500 0.000000 0.000000 -1.000000
0.037270 -0.007413 0.115500 0.000000 0.000000 1.000000
0.035107 -0.014542 -0.115500 0.000000 0.000000 -1.000000
0.035107 -0.014542 0.115500 0.000000 0.000000 1.000000
0.031596 -0.021112 -0.115500 0.000000 0.000000 -1.000000
0.031596 -0.021112 0.115500 0.000000 0.000000 1.000000
0.026870 -0.026870 -0.115500 0.000000 0.000000 -1.000000
0.026870 -0.026870 0.115500 0.000000 0.000000 1.000000
0.021112 -0.031596 -0.115500 0.000000 0.000000 -1.000000
0.021112 -0.031596 0.115500 0.000000 0.000000 1.000000
0.014542 -0.035107 -0.115500 0.000000 0.000000 -1.000000
0.014542 -0.035107 0.115500 0.000000 0.000000 1.000000
0.007413 -0.037270 -0.115500 0.000000 0.000000 -1.000000
0.007413 -0.037270 0.115500 0.000000 0.000000 1.000000
-0.000000 -0.038000 -0.115500 0.000000 0.000000 -1.000000
0.000000 -0.038000 0.115500 0.000000 0.000000 1.000000
-0.007413 -0.037270 -0.115500 0.000000 0.000000 -1.000000
-0.007413 -0.037270 0.115500 0.000000 0.000000 1.000000
-0.014542 -0.035107 -0.115500 0.000000 0.000000 -1.000000
-0.014542 -0.035107 0.115500 0.000000 0.000000 1.000000
-0.021112 -0.031596 -0.115500 0.000000 0.000000 -1.000000
-0.021112 -0.031596 0.115500 0.000000 0.000000 1.000000
-0.026870 -0.026870 -0.115500 0.000000 0.000000 -1.000000
-0.026870 -0.026870 0.115500 0.000000 0.000000 1.000000
-0.031596 -0.021112 -0.115500 0.000000 0.000000 -1.000000
-0.031596 -0.021112 0.115500 0.000000 0.000000 1.000000
-0.035107 -0.014542 -0.115500 0.000000 0.000000 -1.000000
-0.035107 -0.014542 0.115500 0.000000 0.000000 1.000000
-0.037270 -0.007413 -0.115500 0.000000 0.000000 -1.000000
-0.037270 -0.007414 0.115500 0.000000 0.000000 1.000000
-0.038000 0.000000 -0.115500 0.000000 0.000000 -1.000000
-0.038000 -0.000000 0.115500 0.000000 0.000000 1.000000
-0.037270 0.007413 -0.115500 0.000000 0.000000 -1.000000
-0.037270 0.007413 0.115500 0.000000 0.000000 1.000000
-0.035107 0.014542 -0.115500 0.000000 0.000000 -1.000000
-0.035107 0.014542 0.115500 0.000000 0.000000 1.000000
-0.031596 0.021112 -0.115500 0.000000 0.000000 -1.000000
-0.031596 0.021111 0.115500 0.000000 0.000000 1.000000
-0.026870 0.026870 -0.115500 0.000000 0.000000 -1.000000
-0.026870 0.026870 0.115500 0.000000 0.000000 1.000000
-0.021112 0.031596 -0.115500 0.000000 0.000000 -1.000000
-0.021112 0.031596 0.115500 0.000000 0.000000 1.000000
-0.014542 0.035107 -0.115500 0.000000 0.000000 -1.000000
-0.014542 0.035107 0.115500 0.000000 0.000000 1.000000
-0.007413 0.037270 -0.115500 0.000000 0.000000 -1.000000
-0.007414 0.037270 0.115500 0.000000 0.000000 1.000000
0.000000 0.038000 -0.115500 0.000000 0.000000 -1.000000
-0.000000 0.038000 0.115500 0.000000 0.000000 1.000000
0.007413 0.037270 -0.115500 0.000000 0.000000 -1.000000
0.007413 0.037270 0.115500 0.000000 0.000000 1.000000
0.014542 0.035107 -0.115500 0.000000 0.000000 -1.000000
0.014542 0.035108 0.115500 0.000000 0.000000 1.000000
0.021112 0.031596 -0.115500 0.000000 0.000000 -1.000000
0.021111 0.031596 0.115500 0.000000 0.000000 1.000000
0.026870 0.026870 -0.115500 0.707083 0.707083 0.000000
0.026870 0.026870 0.115500 0.707083 0.707083 0.000000
0.031596 0.021112 0.115500 0.831446 0.555559 0.000000
0.031596 0.021112 -0.115500 0.831446 0.555559 0.000000
0.035107 0.014542 0.115500 0.923856 0.382672 0.000000
0.035107 0.014542 -0.115500 0.923856 0.382672 0.000000
0.037270 0.007413 0.115500 0.980773 0.195074 0.000000
0.037270 0.007413 -0.115500 0.980773 0.195074 0.000000
0.038000 -0.000000 0.115500 1.000000 0.000000 0.000000
0.038000 0.000000 -0.115500 1.000000 0.000000 0.000000
0.037270 -0.007413 0.115500 0.980773 -0.195074 0.000000
0.037270 -0.007413 -0.115500 0.980773 -0.195074 0.000000
0.035107 -0.014542 0.115500 0.923856 -0.382672 0.000000
0.035107 -0.014542 -0.115500 0.923856 -0.382672 0.000000
0.031596 -0.021112 0.115500 0.831446 -0.555559 0.000000
0.031596 -0.021112 -0.115500 0.831446 -0.555559 0.000000
0.026870 -0.026870 0.115500 0.707083 -0.707083 0.000000
0.026870 -0.026870 -0.115500 0.707083 -0.707083 0.000000
0.021112 -0.031596 0.115500 0.555559 -0.831446 0.000000
0.021112 -0.031596 -0.115500 0.555559 -0.831446 0.000000
0.014542 -0.035107 0.115500 0.382672 -0.923856 0.000000
0.014542 -0.035107 -0.115500 0.382672 -0.923856 0.000000
0.007413 -0.037270 0.115500 0.195074 -0.980773 0.000000
0.007413 -0.037270 -0.115500 0.195074 -0.980773 0.000000
0.000000 -0.038000 0.115500 0.000000 -1.000000 0.000000
-0.000000 -0.038000 -0.115500 0.000000 -1.000000 0.000000
-0.007413 -0.037270 0.115500 -0.195074 -0.980773 0.000000
-0.007413 -0.037270 -0.115500 -0.195074 -0.980773 0.000000
-0.014542 -0.035107 0.115500 -0.382672 -0.923856 0.000000
-0.014542 -0.035107 -0.115500 -0.382672 -0.923856 0.000000
-0.021112 -0.031596 0.115500 -0.555559 -0.831446 0.000000
-0.021112 -0.031596 -0.115500 -0.555559 -0.831446 0.000000
-0.026870 -0.026870 0.115500 -0.707083 -0.707083 0.000000
-0.026870 -0.026870 -0.115500 -0.707083 -0.707083 0.000000
-0.031596 -0.021112 0.115500 -0.831446 -0.555559 0.000000
-0.031596 -0.021112 -0.115500 -0.831446 -0.555559 0.000000
-0.035107 -0.014542 0.115500 -0.923856 -0.382672 0.000000
-0.035107 -0.014542 -0.115500 -0.923856 -0.382672 0.000000
-0.037270 -0.007414 0.115500 -0.980773 -0.195074 0.000000
-0.037270 -0.007413 -0.115500 -0.980773 -0.195074 0.000000
-0.038000 -0.000000 0.115500 -1.000000 0.000000 0.000000
-0.038000 0.000000 -0.115500 -1.000000 0.000000 0.000000
-0.037270 0.007413 0.115500 -0.980773 0.195074 0.000000
-0.037270 0.007413 -0.115500 -0.980773 0.195074 0.000000
-0.035107 0.014542 0.115500 -0.923856 0.382672 0.000000
-0.035107 0.014542 -0.115500 -0.923856 0.382672 0.000000
-0.031596 0.021111 0.115500 -0.831446 0.555559 0.000000
-0.031596 0.021112 -0.115500 -0.831446 0.555559 0.000000
-0.026870 0.026870 0.115500 -0.707083 0.707083 0.000000
-0.026870 0.026870 -0.115500 -0.707083 0.707083 0.000000
-0.021112 0.031596 0.115500 -0.555559 0.831446 0.000000
-0.021112 0.031596 -0.115500 -0.555559 0.831446 0.000000
-0.014542 0.035107 0.115500 -0.382672 0.923856 0.000000
-0.014542 0.035107 -0.115500 -0.382672 0.923856 0.000000
-0.007414 0.037270 0.115500 -0.195074 0.980773 0.000000
-0.007413 0.037270 -0.115500 -0.195074 0.980773 0.000000
-0.000000 0.038000 0.115500 0.000000 1.000000 0.000000
0.000000 0.038000 -0.115500 0.000000 1.000000 0.000000
0.007413 0.037270 0.115500 0.195074 0.980773 0.000000
0.007413 0.037270 -0.115500 0.195074 0.980773 0.000000
0.014542 0.035108 0.115500 0.382672 0.923856 0.000000
0.014542 0.035107 -0.115500 0.382672 0.923856 0.000000
0.021111 0.031596 0.115500 0.555559 0.831446 0.000000
0.021112 0.031596 -0.115500 0.555559 0.831446 0.000000
3 0 1 2
3 3 4 5
3 0 2 6
3 3 7 4
3 0 6 8
3 3 9 7
3 0 8 10
3 3 11 9
3 0 10 12
3 3 13 11
3 0 12 14
3 3 15 13
3 0 14 16
3 3 17 15
3 0 16 18
3 3 19 17
3 0 18 20
3 3 21 19
3 0 20 22
3 3 23 21
3 0 22 24
3 3 25 23
3 0 24 26
3 3 27 25
3 0 26 28
3 3 29 27
3 0 28 30
3 3 31 29
3 0 30 32
3 3 33 31
3 0 32 34
3 3 35 33
3 0 34 36
3 3 37 35
3 0 36 38
3 3 39 37
3 0 38 40
3 3 41 39
3 0 40 42
3 3 43 41
3 0 42 44
3 3 45 43
3 0 44 46
3 3 47 45
3 0 46 48
3 3 49 47
3 0 48 50
3 3 51 49
3 0 50 52
3 3 53 51
3 0 52 54
3 3 55 53
3 0 54 56
3 3 57 55
3 0 56 58
3 3 59 57
3 0 58 60
3 3 61 59
3 0 60 62
3 3 63 61
3 0 62 64
3 3 65 63
3 1 0 64
3 3 5 65
4 66 67 68 69
4 69 68 70 71
4 71 70 72 73
4 73 72 74 75
4 75 74 76 77
4 77 76 78 79
4 79 78 80 81
4 81 80 82 83
4 83 82 84 85
4 85 84 86 87
4 87 86 88 89
4 89 88 90 91
4 91 90 92 93
4 93 92 94 95
4 95 94 96 97
4 97 96 98 99
4 99 98 100 101
4 101 100 102 103
4 103 102 104 105
4 105 104 106 107
4 107 106 108 109
4 109 108 110 111
4 111 110 112 113
4 113 112 114 115
4 115 114 116 117
4 117 116 118 119
4 119 118 120 121
4 121 120 122 123
4 123 122 124 125
4 125 124 126 127
4 127 126 128 129
4 67 66 129 128
6 69 70 71 72 73 74 0.600512 -0.297457 -0.602051 -0.578441 0.516617 0.371631 0.709339 0.681521 -0.014142 0.942934 -0.466554 -0.448257 -0.040937 -0.055666 0.383431 0.564473 0.440609 0.343265 0.041794 0.197264 0
2 67 68 0.336729 -0.400668 -0.850144 -0.816805 0.717018 0.168906 0.423836 0.407215 0.014374 0.962627 -0.425344 -0.408663 -0.039753 -0.051651 0.382654 0.563727 0.468060 0.344995 0.011762 0.201877 1
2 75 76 0.761778 -0.066328 -0.264601 -0.254225 0.212392 0.452580 0.903025 0.867612 -0.047861 0.952096 -0.444782 -0.427339 -0.038347 -0.055223 0.377336 0.558617 0.440020 0.340917 0.029403 0.199150 2
2 77 78 0.778616 0.139622 0.149248 0.143396 -0.139181 0.473974 0.910526 0.874819 -0.045754 0.933578 -0.481628 -0.462740 -0.039128 -0.050157 0.370274 0.551832 0.439650 0.345450 0.030235 0.197041 3
2 79 80 0.696247 0.306082 0.408149 0.392143 -0.373909 0.432965 0.806530 0.774902 -0.056034 0.913547 -0.515967 -0.495733 -0.034237 -0.046725 0.364678 0.546455 0.440477 0.349039 0.032681 0.194373 4
2 81 82 0.489182 0.418395 0.717306 0.689176 -0.621838 0.266792 0.578123 0.555452 -0.041547 0.932460 -0.484298 -0.465306 -0.038870 -0.043746 0.360726 0.542658 0.437608 0.348732 0.030060 0.201780 5
2 83 84 0.201018 0.488142 0.889236 0.854364 -0.763864 0.052840 0.257382 0.247288 -0.061732 0.935222 -0.475723 -0.457067 -0.039284 -0.049042 0.356592 0.538687 0.434668 0.342557 0.034871 0.202602 6
2 85 86 -0.086316 0.495202 0.911877 0.876117 -0.787027 -0.088672 -0.096442 -0.092660 -0.029086 0.928777 -0.492420 -0.473109 -0.036009 -0.044718 0.353381 0.535601 0.440999 0.346379 0.027337 0.203517 7
2 87 88 -0.424552 0.397888 0.779568 0.748996 -0.668152 -0.297765 -0.489166 -0.469983 -0.032185 0.932060 -0.486096 -0.467033 -0.029886 -0.042112 0.354045 0.536240 0.449349 0.348522 0.026521 0.204322 8
2 89 90 -0.633084 0.262825 0.558647 0.536740 -0.472913 -0.462203 -0.709698 -0.681867 -0.057151 0.912691 -0.517244 -0.496960 -0.033464 -0.039825 0.351325 0.533626 0.440697 0.351838 0.033826 0.200101 9
2 91 92 -0.774631 0.024993 0.202892 0.194936 -0.146812 -0.595852 -0.841573 -0.808570 -0.078101 0.871808 -0.577830 -0.555170 -0.040912 -0.038188 0.342636 0.525278 0.429305 0.355439 0.042352 0.191366 10
2 93 94 -0.752765 -0.260841 -0.212731 -0.204389 0.236962 -0.579156 -0.809845 -0.778086 -0.070010 0.843952 -0.618220 -0.593976 -0.041124 -0.034062 0.334558 0.517517 0.431413 0.359973 0.041781 0.187705 11
2 64 95 -0.677617 -0.319979 -0.450765 -0.433088 0.405838 -0.392687 -0.799247 -0.767904 -0.061956 0.926890 -0.491237 -0.471972 -0.037749 -0.035070 0.364799 0.546571 0.437526 0.357940 0.034223 0.200032 12
2 65 66 0.159871 -0.464105 -0.909195 -0.873540 0.774530 0.153213 0.173366 0.166568 -0.047460 0.936401 -0.476032 -0.457365 -0.023451 -0.041293 0.339281 0.522054 0.480324 0.347662 0.022793 0.214601 13
32 1 3 5 7 9 11 13 15 17 19 21 23 25 27 29 31 33 35 37 39 41 43 45 47 49 51 53 55 57 59 61 63 0.666641 -0.399971 -0.389946 -0.374654 0.417994 0.771116 0.461699 0.443593 -0.092616 0.600930 -0.847393 -0.814162 -0.014742 -0.067819 0.267459 0.453049 0.423473 0.453691 0.082766 0.091668 14
